<?xml version="1.0" encoding="utf-8" standalone="no"?>
<!DOCTYPE svg PUBLIC "-//W3C//DTD SVG 1.1//EN"
  "http://www.w3.org/Graphics/SVG/1.1/DTD/svg11.dtd">
<svg xmlns:xlink="http://www.w3.org/1999/xlink" width="416.870298pt" height="217.976pt" viewBox="0 0 416.870298 217.976" xmlns="http://www.w3.org/2000/svg" version="1.1">
 <metadata>
  <rdf:RDF xmlns:dc="http://purl.org/dc/elements/1.1/" xmlns:cc="http://creativecommons.org/ns#" xmlns:rdf="http://www.w3.org/1999/02/22-rdf-syntax-ns#">
   <cc:Work>
    <dc:type rdf:resource="http://purl.org/dc/dcmitype/StillImage"/>
    <dc:date>2026-04-21T19:36:31.867125</dc:date>
    <dc:format>image/svg+xml</dc:format>
    <dc:creator>
     <cc:Agent>
      <dc:title>Matplotlib v3.10.7, https://matplotlib.org/</dc:title>
     </cc:Agent>
    </dc:creator>
   </cc:Work>
  </rdf:RDF>
 </metadata>
 <defs>
  <style type="text/css">*{stroke-linejoin: round; stroke-linecap: butt}</style>
 </defs>
 <g id="figure_1">
  <g id="patch_1">
   <path d="M 0 217.976 
L 416.870298 217.976 
L 416.870298 0 
L 0 0 
z
" style="fill: #ffffff"/>
  </g>
  <g id="axes_1">
   <g id="patch_2">
    <path d="M 29.510298 134.424 
L 409.670298 134.424 
L 409.670298 7.2 
L 29.510298 7.2 
z
" style="fill: #ffffff"/>
   </g>
   <g id="matplotlib.axis_1">
    <g id="xtick_1">
     <g id="line2d_1">
      <path d="M 32.27242 134.424 
L 32.27242 7.2 
" clip-path="url(#p5320cde0a5)" style="fill: none; stroke-dasharray: 0.4,0.66; stroke-dashoffset: 0; stroke: #b0b0b0; stroke-opacity: 0.4; stroke-width: 0.4"/>
     </g>
     <g id="line2d_2">
      <defs>
       <path id="m41dabf46c7" d="M 0 0 
L 0 3.5 
" style="stroke: #000000; stroke-width: 0.8"/>
      </defs>
      <g>
       <use xlink:href="#m41dabf46c7" x="32.27242" y="134.424" style="stroke: #000000; stroke-width: 0.8"/>
      </g>
     </g>
     <g id="text_1">
      <!-- 0:00 -->
      <g transform="translate(18.392797 158.425499) rotate(-45) scale(0.08 -0.08)">
       <defs>
        <path id="DejaVuSerif-30" d="M 2034 219 
Q 2513 219 2750 744 
Q 2988 1269 2988 2328 
Q 2988 3391 2750 3916 
Q 2513 4441 2034 4441 
Q 1556 4441 1318 3916 
Q 1081 3391 1081 2328 
Q 1081 1269 1318 744 
Q 1556 219 2034 219 
z
M 2034 -91 
Q 1275 -91 848 546 
Q 422 1184 422 2328 
Q 422 3475 848 4112 
Q 1275 4750 2034 4750 
Q 2797 4750 3222 4112 
Q 3647 3475 3647 2328 
Q 3647 1184 3222 546 
Q 2797 -91 2034 -91 
z
" transform="scale(0.015625)"/>
        <path id="DejaVuSerif-3a" d="M 666 325 
Q 666 500 786 622 
Q 906 744 1081 744 
Q 1256 744 1376 622 
Q 1497 500 1497 325 
Q 1497 150 1378 29 
Q 1259 -91 1081 -91 
Q 903 -91 784 29 
Q 666 150 666 325 
z
M 666 2363 
Q 666 2538 786 2658 
Q 906 2778 1081 2778 
Q 1259 2778 1378 2659 
Q 1497 2541 1497 2363 
Q 1497 2184 1378 2065 
Q 1259 1947 1081 1947 
Q 906 1947 786 2067 
Q 666 2188 666 2363 
z
" transform="scale(0.015625)"/>
       </defs>
       <use xlink:href="#DejaVuSerif-30"/>
       <use xlink:href="#DejaVuSerif-3a" transform="translate(63.623047 0)"/>
       <use xlink:href="#DejaVuSerif-30" transform="translate(97.314453 0)"/>
       <use xlink:href="#DejaVuSerif-30" transform="translate(160.9375 0)"/>
      </g>
     </g>
    </g>
    <g id="xtick_2">
     <g id="line2d_3">
      <path d="M 87.514851 134.424 
L 87.514851 7.2 
" clip-path="url(#p5320cde0a5)" style="fill: none; stroke-dasharray: 0.4,0.66; stroke-dashoffset: 0; stroke: #b0b0b0; stroke-opacity: 0.4; stroke-width: 0.4"/>
     </g>
     <g id="line2d_4">
      <g>
       <use xlink:href="#m41dabf46c7" x="87.514851" y="134.424" style="stroke: #000000; stroke-width: 0.8"/>
      </g>
     </g>
     <g id="text_2">
      <!-- 10:00 -->
      <g transform="translate(70.036056 162.024672) rotate(-45) scale(0.08 -0.08)">
       <defs>
        <path id="DejaVuSerif-31" d="M 909 0 
L 909 331 
L 1722 331 
L 1722 4213 
L 781 3603 
L 781 4013 
L 1919 4750 
L 2350 4750 
L 2350 331 
L 3163 331 
L 3163 0 
L 909 0 
z
" transform="scale(0.015625)"/>
       </defs>
       <use xlink:href="#DejaVuSerif-31"/>
       <use xlink:href="#DejaVuSerif-30" transform="translate(63.623047 0)"/>
       <use xlink:href="#DejaVuSerif-3a" transform="translate(127.246094 0)"/>
       <use xlink:href="#DejaVuSerif-30" transform="translate(160.9375 0)"/>
       <use xlink:href="#DejaVuSerif-30" transform="translate(224.560547 0)"/>
      </g>
     </g>
    </g>
    <g id="xtick_3">
     <g id="line2d_5">
      <path d="M 142.757283 134.424 
L 142.757283 7.2 
" clip-path="url(#p5320cde0a5)" style="fill: none; stroke-dasharray: 0.4,0.66; stroke-dashoffset: 0; stroke: #b0b0b0; stroke-opacity: 0.4; stroke-width: 0.4"/>
     </g>
     <g id="line2d_6">
      <g>
       <use xlink:href="#m41dabf46c7" x="142.757283" y="134.424" style="stroke: #000000; stroke-width: 0.8"/>
      </g>
     </g>
     <g id="text_3">
      <!-- 20:00 -->
      <g transform="translate(125.278487 162.024672) rotate(-45) scale(0.08 -0.08)">
       <defs>
        <path id="DejaVuSerif-32" d="M 819 3553 
L 469 3553 
L 469 4384 
Q 803 4563 1142 4656 
Q 1481 4750 1806 4750 
Q 2534 4750 2956 4397 
Q 3378 4044 3378 3438 
Q 3378 2753 2422 1800 
Q 2347 1728 2309 1691 
L 1131 513 
L 3078 513 
L 3078 1088 
L 3444 1088 
L 3444 0 
L 434 0 
L 434 341 
L 1850 1753 
Q 2319 2222 2519 2614 
Q 2719 3006 2719 3438 
Q 2719 3909 2473 4175 
Q 2228 4441 1797 4441 
Q 1350 4441 1106 4219 
Q 863 3997 819 3553 
z
" transform="scale(0.015625)"/>
       </defs>
       <use xlink:href="#DejaVuSerif-32"/>
       <use xlink:href="#DejaVuSerif-30" transform="translate(63.623047 0)"/>
       <use xlink:href="#DejaVuSerif-3a" transform="translate(127.246094 0)"/>
       <use xlink:href="#DejaVuSerif-30" transform="translate(160.9375 0)"/>
       <use xlink:href="#DejaVuSerif-30" transform="translate(224.560547 0)"/>
      </g>
     </g>
    </g>
    <g id="xtick_4">
     <g id="line2d_7">
      <path d="M 197.999714 134.424 
L 197.999714 7.2 
" clip-path="url(#p5320cde0a5)" style="fill: none; stroke-dasharray: 0.4,0.66; stroke-dashoffset: 0; stroke: #b0b0b0; stroke-opacity: 0.4; stroke-width: 0.4"/>
     </g>
     <g id="line2d_8">
      <g>
       <use xlink:href="#m41dabf46c7" x="197.999714" y="134.424" style="stroke: #000000; stroke-width: 0.8"/>
      </g>
     </g>
     <g id="text_4">
      <!-- 30:00 -->
      <g transform="translate(180.520919 162.024672) rotate(-45) scale(0.08 -0.08)">
       <defs>
        <path id="DejaVuSerif-33" d="M 622 4469 
Q 988 4606 1323 4678 
Q 1659 4750 1953 4750 
Q 2638 4750 3022 4454 
Q 3406 4159 3406 3634 
Q 3406 3213 3140 2930 
Q 2875 2647 2388 2547 
Q 2963 2466 3280 2130 
Q 3597 1794 3597 1259 
Q 3597 606 3158 257 
Q 2719 -91 1894 -91 
Q 1528 -91 1179 -12 
Q 831 66 488 225 
L 488 1131 
L 838 1131 
Q 869 681 1141 450 
Q 1413 219 1906 219 
Q 2384 219 2661 495 
Q 2938 772 2938 1253 
Q 2938 1803 2653 2086 
Q 2369 2369 1819 2369 
L 1522 2369 
L 1522 2688 
L 1678 2688 
Q 2225 2688 2498 2914 
Q 2772 3141 2772 3597 
Q 2772 4006 2547 4223 
Q 2322 4441 1900 4441 
Q 1478 4441 1245 4241 
Q 1013 4041 972 3647 
L 622 3647 
L 622 4469 
z
" transform="scale(0.015625)"/>
       </defs>
       <use xlink:href="#DejaVuSerif-33"/>
       <use xlink:href="#DejaVuSerif-30" transform="translate(63.623047 0)"/>
       <use xlink:href="#DejaVuSerif-3a" transform="translate(127.246094 0)"/>
       <use xlink:href="#DejaVuSerif-30" transform="translate(160.9375 0)"/>
       <use xlink:href="#DejaVuSerif-30" transform="translate(224.560547 0)"/>
      </g>
     </g>
    </g>
    <g id="xtick_5">
     <g id="line2d_9">
      <path d="M 253.242146 134.424 
L 253.242146 7.2 
" clip-path="url(#p5320cde0a5)" style="fill: none; stroke-dasharray: 0.4,0.66; stroke-dashoffset: 0; stroke: #b0b0b0; stroke-opacity: 0.4; stroke-width: 0.4"/>
     </g>
     <g id="line2d_10">
      <g>
       <use xlink:href="#m41dabf46c7" x="253.242146" y="134.424" style="stroke: #000000; stroke-width: 0.8"/>
      </g>
     </g>
     <g id="text_5">
      <!-- 40:00 -->
      <g transform="translate(235.76335 162.024672) rotate(-45) scale(0.08 -0.08)">
       <defs>
        <path id="DejaVuSerif-34" d="M 2234 1581 
L 2234 4063 
L 641 1581 
L 2234 1581 
z
M 3609 0 
L 1484 0 
L 1484 331 
L 2234 331 
L 2234 1247 
L 197 1247 
L 197 1588 
L 2241 4750 
L 2859 4750 
L 2859 1581 
L 3750 1581 
L 3750 1247 
L 2859 1247 
L 2859 331 
L 3609 331 
L 3609 0 
z
" transform="scale(0.015625)"/>
       </defs>
       <use xlink:href="#DejaVuSerif-34"/>
       <use xlink:href="#DejaVuSerif-30" transform="translate(63.623047 0)"/>
       <use xlink:href="#DejaVuSerif-3a" transform="translate(127.246094 0)"/>
       <use xlink:href="#DejaVuSerif-30" transform="translate(160.9375 0)"/>
       <use xlink:href="#DejaVuSerif-30" transform="translate(224.560547 0)"/>
      </g>
     </g>
    </g>
    <g id="xtick_6">
     <g id="line2d_11">
      <path d="M 308.484578 134.424 
L 308.484578 7.2 
" clip-path="url(#p5320cde0a5)" style="fill: none; stroke-dasharray: 0.4,0.66; stroke-dashoffset: 0; stroke: #b0b0b0; stroke-opacity: 0.4; stroke-width: 0.4"/>
     </g>
     <g id="line2d_12">
      <g>
       <use xlink:href="#m41dabf46c7" x="308.484578" y="134.424" style="stroke: #000000; stroke-width: 0.8"/>
      </g>
     </g>
     <g id="text_6">
      <!-- 50:00 -->
      <g transform="translate(291.005782 162.024672) rotate(-45) scale(0.08 -0.08)">
       <defs>
        <path id="DejaVuSerif-35" d="M 3219 4666 
L 3219 4153 
L 1081 4153 
L 1081 2816 
Q 1244 2928 1461 2984 
Q 1678 3041 1947 3041 
Q 2703 3041 3140 2622 
Q 3578 2203 3578 1478 
Q 3578 738 3136 323 
Q 2694 -91 1894 -91 
Q 1572 -91 1234 -12 
Q 897 66 544 225 
L 544 1131 
L 897 1131 
Q 925 688 1179 453 
Q 1434 219 1894 219 
Q 2388 219 2653 544 
Q 2919 869 2919 1478 
Q 2919 2084 2655 2407 
Q 2391 2731 1894 2731 
Q 1613 2731 1398 2631 
Q 1184 2531 1019 2322 
L 750 2322 
L 750 4666 
L 3219 4666 
z
" transform="scale(0.015625)"/>
       </defs>
       <use xlink:href="#DejaVuSerif-35"/>
       <use xlink:href="#DejaVuSerif-30" transform="translate(63.623047 0)"/>
       <use xlink:href="#DejaVuSerif-3a" transform="translate(127.246094 0)"/>
       <use xlink:href="#DejaVuSerif-30" transform="translate(160.9375 0)"/>
       <use xlink:href="#DejaVuSerif-30" transform="translate(224.560547 0)"/>
      </g>
     </g>
    </g>
    <g id="xtick_7">
     <g id="line2d_13">
      <path d="M 363.727009 134.424 
L 363.727009 7.2 
" clip-path="url(#p5320cde0a5)" style="fill: none; stroke-dasharray: 0.4,0.66; stroke-dashoffset: 0; stroke: #b0b0b0; stroke-opacity: 0.4; stroke-width: 0.4"/>
     </g>
     <g id="line2d_14">
      <g>
       <use xlink:href="#m41dabf46c7" x="363.727009" y="134.424" style="stroke: #000000; stroke-width: 0.8"/>
      </g>
     </g>
     <g id="text_7">
      <!-- 60:00 -->
      <g transform="translate(346.248213 162.024672) rotate(-45) scale(0.08 -0.08)">
       <defs>
        <path id="DejaVuSerif-36" d="M 2094 219 
Q 2534 219 2771 542 
Q 3009 866 3009 1472 
Q 3009 2078 2771 2401 
Q 2534 2725 2094 2725 
Q 1647 2725 1412 2412 
Q 1178 2100 1178 1509 
Q 1178 888 1415 553 
Q 1653 219 2094 219 
z
M 1075 2569 
Q 1288 2803 1556 2918 
Q 1825 3034 2163 3034 
Q 2859 3034 3264 2615 
Q 3669 2197 3669 1472 
Q 3669 763 3233 336 
Q 2797 -91 2069 -91 
Q 1278 -91 853 498 
Q 428 1088 428 2181 
Q 428 3406 931 4078 
Q 1434 4750 2350 4750 
Q 2597 4750 2869 4703 
Q 3141 4656 3425 4563 
L 3425 3794 
L 3072 3794 
Q 3034 4109 2831 4275 
Q 2628 4441 2284 4441 
Q 1678 4441 1381 3981 
Q 1084 3522 1075 2569 
z
" transform="scale(0.015625)"/>
       </defs>
       <use xlink:href="#DejaVuSerif-36"/>
       <use xlink:href="#DejaVuSerif-30" transform="translate(63.623047 0)"/>
       <use xlink:href="#DejaVuSerif-3a" transform="translate(127.246094 0)"/>
       <use xlink:href="#DejaVuSerif-30" transform="translate(160.9375 0)"/>
       <use xlink:href="#DejaVuSerif-30" transform="translate(224.560547 0)"/>
      </g>
     </g>
    </g>
    <g id="text_8">
     <!-- Mission elapsed time (mm:ss) -->
     <g transform="translate(151.709907 174.039715) scale(0.09 -0.09)">
      <defs>
       <path id="DejaVuSerif-4d" d="M 353 0 
L 353 331 
L 947 331 
L 947 4331 
L 319 4331 
L 319 4666 
L 1678 4666 
L 3316 1344 
L 4953 4666 
L 6228 4666 
L 6228 4331 
L 5606 4331 
L 5606 331 
L 6203 331 
L 6203 0 
L 4378 0 
L 4378 331 
L 4972 331 
L 4972 3938 
L 3372 684 
L 2931 684 
L 1331 3938 
L 1331 331 
L 1925 331 
L 1925 0 
L 353 0 
z
" transform="scale(0.015625)"/>
       <path id="DejaVuSerif-69" d="M 622 4353 
Q 622 4497 726 4603 
Q 831 4709 978 4709 
Q 1122 4709 1226 4603 
Q 1331 4497 1331 4353 
Q 1331 4206 1228 4103 
Q 1125 4000 978 4000 
Q 831 4000 726 4103 
Q 622 4206 622 4353 
z
M 1356 331 
L 1900 331 
L 1900 0 
L 231 0 
L 231 331 
L 781 331 
L 781 2988 
L 231 2988 
L 231 3322 
L 1356 3322 
L 1356 331 
z
" transform="scale(0.015625)"/>
       <path id="DejaVuSerif-73" d="M 359 184 
L 359 959 
L 691 959 
Q 703 588 923 403 
Q 1144 219 1575 219 
Q 1963 219 2166 364 
Q 2369 509 2369 788 
Q 2369 1006 2220 1140 
Q 2072 1275 1594 1428 
L 1178 1569 
Q 750 1706 558 1912 
Q 366 2119 366 2438 
Q 366 2894 700 3153 
Q 1034 3413 1625 3413 
Q 1888 3413 2178 3344 
Q 2469 3275 2778 3144 
L 2778 2419 
L 2447 2419 
Q 2434 2741 2221 2922 
Q 2009 3103 1644 3103 
Q 1281 3103 1095 2975 
Q 909 2847 909 2591 
Q 909 2381 1050 2254 
Q 1191 2128 1613 1997 
L 2069 1856 
Q 2541 1709 2748 1489 
Q 2956 1269 2956 922 
Q 2956 450 2595 179 
Q 2234 -91 1600 -91 
Q 1278 -91 972 -22 
Q 666 47 359 184 
z
" transform="scale(0.015625)"/>
       <path id="DejaVuSerif-6f" d="M 1925 219 
Q 2388 219 2623 584 
Q 2859 950 2859 1663 
Q 2859 2375 2623 2739 
Q 2388 3103 1925 3103 
Q 1463 3103 1227 2739 
Q 991 2375 991 1663 
Q 991 950 1228 584 
Q 1466 219 1925 219 
z
M 1925 -91 
Q 1200 -91 759 389 
Q 319 869 319 1663 
Q 319 2456 758 2934 
Q 1197 3413 1925 3413 
Q 2653 3413 3092 2934 
Q 3531 2456 3531 1663 
Q 3531 869 3092 389 
Q 2653 -91 1925 -91 
z
" transform="scale(0.015625)"/>
       <path id="DejaVuSerif-6e" d="M 263 0 
L 263 331 
L 781 331 
L 781 2988 
L 231 2988 
L 231 3322 
L 1356 3322 
L 1356 2731 
Q 1516 3069 1770 3241 
Q 2025 3413 2363 3413 
Q 2913 3413 3172 3097 
Q 3431 2781 3431 2113 
L 3431 331 
L 3944 331 
L 3944 0 
L 2356 0 
L 2356 331 
L 2853 331 
L 2853 1931 
Q 2853 2541 2703 2767 
Q 2553 2994 2175 2994 
Q 1775 2994 1565 2701 
Q 1356 2409 1356 1850 
L 1356 331 
L 1856 331 
L 1856 0 
L 263 0 
z
" transform="scale(0.015625)"/>
       <path id="DejaVuSerif-20" transform="scale(0.015625)"/>
       <path id="DejaVuSerif-65" d="M 3469 1600 
L 991 1600 
L 991 1575 
Q 991 903 1244 561 
Q 1497 219 1991 219 
Q 2369 219 2611 417 
Q 2853 616 2950 1006 
L 3413 1006 
Q 3275 459 2904 184 
Q 2534 -91 1931 -91 
Q 1203 -91 761 389 
Q 319 869 319 1663 
Q 319 2450 753 2931 
Q 1188 3413 1894 3413 
Q 2647 3413 3050 2948 
Q 3453 2484 3469 1600 
z
M 2791 1931 
Q 2772 2513 2545 2808 
Q 2319 3103 1894 3103 
Q 1497 3103 1269 2806 
Q 1041 2509 991 1931 
L 2791 1931 
z
" transform="scale(0.015625)"/>
       <path id="DejaVuSerif-6c" d="M 1313 331 
L 1856 331 
L 1856 0 
L 184 0 
L 184 331 
L 738 331 
L 738 4531 
L 184 4531 
L 184 4863 
L 1313 4863 
L 1313 331 
z
" transform="scale(0.015625)"/>
       <path id="DejaVuSerif-61" d="M 2547 1044 
L 2547 1747 
L 1806 1747 
Q 1378 1747 1168 1562 
Q 959 1378 959 997 
Q 959 650 1171 447 
Q 1384 244 1747 244 
Q 2106 244 2326 466 
Q 2547 688 2547 1044 
z
M 3122 2075 
L 3122 331 
L 3634 331 
L 3634 0 
L 2547 0 
L 2547 359 
Q 2356 128 2106 18 
Q 1856 -91 1522 -91 
Q 969 -91 644 203 
Q 319 497 319 997 
Q 319 1513 691 1797 
Q 1063 2081 1741 2081 
L 2547 2081 
L 2547 2309 
Q 2547 2688 2317 2895 
Q 2088 3103 1672 3103 
Q 1328 3103 1125 2947 
Q 922 2791 872 2484 
L 575 2484 
L 575 3156 
Q 875 3284 1158 3348 
Q 1441 3413 1709 3413 
Q 2400 3413 2761 3070 
Q 3122 2728 3122 2075 
z
" transform="scale(0.015625)"/>
       <path id="DejaVuSerif-70" d="M 1313 1825 
L 1313 1497 
Q 1313 897 1542 583 
Q 1772 269 2209 269 
Q 2650 269 2876 622 
Q 3103 975 3103 1663 
Q 3103 2353 2876 2703 
Q 2650 3053 2209 3053 
Q 1772 3053 1542 2737 
Q 1313 2422 1313 1825 
z
M 738 2988 
L 184 2988 
L 184 3322 
L 1313 3322 
L 1313 2803 
Q 1481 3116 1742 3264 
Q 2003 3413 2388 3413 
Q 3000 3413 3387 2928 
Q 3775 2444 3775 1663 
Q 3775 881 3387 395 
Q 3000 -91 2388 -91 
Q 2003 -91 1742 57 
Q 1481 206 1313 519 
L 1313 -997 
L 1856 -997 
L 1856 -1331 
L 184 -1331 
L 184 -997 
L 738 -997 
L 738 2988 
z
" transform="scale(0.015625)"/>
       <path id="DejaVuSerif-64" d="M 3359 331 
L 3909 331 
L 3909 0 
L 2784 0 
L 2784 519 
Q 2616 206 2355 57 
Q 2094 -91 1709 -91 
Q 1097 -91 708 395 
Q 319 881 319 1663 
Q 319 2444 706 2928 
Q 1094 3413 1709 3413 
Q 2094 3413 2355 3264 
Q 2616 3116 2784 2803 
L 2784 4531 
L 2241 4531 
L 2241 4863 
L 3359 4863 
L 3359 331 
z
M 2784 1497 
L 2784 1825 
Q 2784 2422 2554 2737 
Q 2325 3053 1888 3053 
Q 1444 3053 1217 2703 
Q 991 2353 991 1663 
Q 991 975 1217 622 
Q 1444 269 1888 269 
Q 2325 269 2554 583 
Q 2784 897 2784 1497 
z
" transform="scale(0.015625)"/>
       <path id="DejaVuSerif-74" d="M 691 2988 
L 184 2988 
L 184 3322 
L 691 3322 
L 691 4353 
L 1269 4353 
L 1269 3322 
L 2350 3322 
L 2350 2988 
L 1269 2988 
L 1269 878 
Q 1269 456 1350 337 
Q 1431 219 1650 219 
Q 1875 219 1978 351 
Q 2081 484 2088 781 
L 2522 781 
Q 2497 328 2275 118 
Q 2053 -91 1600 -91 
Q 1103 -91 897 129 
Q 691 350 691 878 
L 691 2988 
z
" transform="scale(0.015625)"/>
       <path id="DejaVuSerif-6d" d="M 3316 2675 
Q 3481 3041 3739 3227 
Q 3997 3413 4341 3413 
Q 4863 3413 5119 3089 
Q 5375 2766 5375 2113 
L 5375 331 
L 5894 331 
L 5894 0 
L 4300 0 
L 4300 331 
L 4800 331 
L 4800 2047 
Q 4800 2556 4650 2772 
Q 4500 2988 4153 2988 
Q 3769 2988 3567 2697 
Q 3366 2406 3366 1850 
L 3366 331 
L 3866 331 
L 3866 0 
L 2291 0 
L 2291 331 
L 2791 331 
L 2791 2069 
Q 2791 2566 2641 2777 
Q 2491 2988 2144 2988 
Q 1759 2988 1557 2697 
Q 1356 2406 1356 1850 
L 1356 331 
L 1856 331 
L 1856 0 
L 263 0 
L 263 331 
L 781 331 
L 781 2994 
L 231 2994 
L 231 3322 
L 1356 3322 
L 1356 2731 
Q 1516 3063 1762 3238 
Q 2009 3413 2322 3413 
Q 2709 3413 2968 3220 
Q 3228 3028 3316 2675 
z
" transform="scale(0.015625)"/>
       <path id="DejaVuSerif-28" d="M 2041 -997 
Q 1281 -656 893 83 
Q 506 822 506 1931 
Q 506 3044 893 3783 
Q 1281 4522 2041 4863 
L 2041 4556 
Q 1559 4225 1350 3623 
Q 1141 3022 1141 1931 
Q 1141 844 1350 242 
Q 1559 -359 2041 -691 
L 2041 -997 
z
" transform="scale(0.015625)"/>
       <path id="DejaVuSerif-29" d="M 453 -997 
L 453 -691 
Q 934 -359 1145 242 
Q 1356 844 1356 1931 
Q 1356 3022 1145 3623 
Q 934 4225 453 4556 
L 453 4863 
Q 1216 4522 1603 3783 
Q 1991 3044 1991 1931 
Q 1991 822 1603 83 
Q 1216 -656 453 -997 
z
" transform="scale(0.015625)"/>
      </defs>
      <use xlink:href="#DejaVuSerif-4d"/>
      <use xlink:href="#DejaVuSerif-69" transform="translate(102.392578 0)"/>
      <use xlink:href="#DejaVuSerif-73" transform="translate(134.375 0)"/>
      <use xlink:href="#DejaVuSerif-73" transform="translate(185.693359 0)"/>
      <use xlink:href="#DejaVuSerif-69" transform="translate(237.011719 0)"/>
      <use xlink:href="#DejaVuSerif-6f" transform="translate(268.994141 0)"/>
      <use xlink:href="#DejaVuSerif-6e" transform="translate(329.199219 0)"/>
      <use xlink:href="#DejaVuSerif-20" transform="translate(393.603516 0)"/>
      <use xlink:href="#DejaVuSerif-65" transform="translate(425.390625 0)"/>
      <use xlink:href="#DejaVuSerif-6c" transform="translate(484.570312 0)"/>
      <use xlink:href="#DejaVuSerif-61" transform="translate(516.552734 0)"/>
      <use xlink:href="#DejaVuSerif-70" transform="translate(576.171875 0)"/>
      <use xlink:href="#DejaVuSerif-73" transform="translate(640.185547 0)"/>
      <use xlink:href="#DejaVuSerif-65" transform="translate(691.503906 0)"/>
      <use xlink:href="#DejaVuSerif-64" transform="translate(750.683594 0)"/>
      <use xlink:href="#DejaVuSerif-20" transform="translate(814.697266 0)"/>
      <use xlink:href="#DejaVuSerif-74" transform="translate(846.484375 0)"/>
      <use xlink:href="#DejaVuSerif-69" transform="translate(886.669922 0)"/>
      <use xlink:href="#DejaVuSerif-6d" transform="translate(918.652344 0)"/>
      <use xlink:href="#DejaVuSerif-65" transform="translate(1013.476562 0)"/>
      <use xlink:href="#DejaVuSerif-20" transform="translate(1072.65625 0)"/>
      <use xlink:href="#DejaVuSerif-28" transform="translate(1104.443359 0)"/>
      <use xlink:href="#DejaVuSerif-6d" transform="translate(1143.457031 0)"/>
      <use xlink:href="#DejaVuSerif-6d" transform="translate(1238.28125 0)"/>
      <use xlink:href="#DejaVuSerif-3a" transform="translate(1333.105469 0)"/>
      <use xlink:href="#DejaVuSerif-73" transform="translate(1366.796875 0)"/>
      <use xlink:href="#DejaVuSerif-73" transform="translate(1418.115234 0)"/>
      <use xlink:href="#DejaVuSerif-29" transform="translate(1469.433594 0)"/>
     </g>
    </g>
   </g>
   <g id="matplotlib.axis_2">
    <g id="ytick_1">
     <g id="line2d_15">
      <defs>
       <path id="mc67f125f2a" d="M 0 0 
L -3.5 0 
" style="stroke: #000000; stroke-width: 0.8"/>
      </defs>
      <g>
       <use xlink:href="#mc67f125f2a" x="29.510298" y="106.8588" style="stroke: #000000; stroke-width: 0.8"/>
      </g>
     </g>
     <g id="text_9">
      <!-- C -->
      <g transform="translate(16.317369 113.144544) rotate(-45) scale(0.09 -0.09)">
       <defs>
        <path id="DejaVuSerif-43" d="M 4513 1234 
Q 4306 581 3820 245 
Q 3334 -91 2591 -91 
Q 2134 -91 1743 65 
Q 1353 222 1050 525 
Q 700 875 529 1320 
Q 359 1766 359 2328 
Q 359 3416 987 4083 
Q 1616 4750 2644 4750 
Q 3025 4750 3456 4650 
Q 3888 4550 4384 4347 
L 4384 3272 
L 4031 3272 
Q 3916 3859 3567 4137 
Q 3219 4416 2591 4416 
Q 1844 4416 1459 3886 
Q 1075 3356 1075 2328 
Q 1075 1303 1459 773 
Q 1844 244 2591 244 
Q 3113 244 3450 492 
Q 3788 741 3938 1234 
L 4513 1234 
z
" transform="scale(0.015625)"/>
       </defs>
       <use xlink:href="#DejaVuSerif-43"/>
      </g>
     </g>
    </g>
    <g id="ytick_2">
     <g id="line2d_16">
      <g>
       <use xlink:href="#mc67f125f2a" x="29.510298" y="71.5188" style="stroke: #000000; stroke-width: 0.8"/>
      </g>
     </g>
     <g id="text_10">
      <!-- D2 -->
      <g transform="translate(12.035616 82.086296) rotate(-45) scale(0.09 -0.09)">
       <defs>
        <path id="DejaVuSerif-44" d="M 1581 331 
L 2163 331 
Q 3072 331 3558 850 
Q 4044 1369 4044 2338 
Q 4044 3306 3559 3818 
Q 3075 4331 2163 4331 
L 1581 4331 
L 1581 331 
z
M 353 0 
L 353 331 
L 947 331 
L 947 4331 
L 353 4331 
L 353 4666 
L 2209 4666 
Q 3416 4666 4089 4050 
Q 4763 3434 4763 2338 
Q 4763 1238 4088 619 
Q 3413 0 2209 0 
L 353 0 
z
" transform="scale(0.015625)"/>
       </defs>
       <use xlink:href="#DejaVuSerif-44"/>
       <use xlink:href="#DejaVuSerif-32" transform="translate(80.175781 0)"/>
      </g>
     </g>
    </g>
    <g id="ytick_3">
     <g id="line2d_17">
      <g>
       <use xlink:href="#mc67f125f2a" x="29.510298" y="36.1788" style="stroke: #000000; stroke-width: 0.8"/>
      </g>
     </g>
     <g id="text_11">
      <!-- D1 -->
      <g transform="translate(12.035616 46.746296) rotate(-45) scale(0.09 -0.09)">
       <use xlink:href="#DejaVuSerif-44"/>
       <use xlink:href="#DejaVuSerif-31" transform="translate(80.175781 0)"/>
      </g>
     </g>
    </g>
   </g>
   <g id="line2d_18">
    <path d="M 113.202582 128.0628 
L 113.202582 13.5612 
" clip-path="url(#p5320cde0a5)" style="fill: none; stroke-dasharray: 3.145,1.36; stroke-dashoffset: 0; stroke: #7b2d8b; stroke-opacity: 0.9; stroke-width: 0.85"/>
   </g>
   <g id="line2d_19">
    <path d="M 171.85163 128.0628 
L 171.85163 13.5612 
" clip-path="url(#p5320cde0a5)" style="fill: none; stroke-dasharray: 3.145,1.36; stroke-dashoffset: 0; stroke: #7b2d8b; stroke-opacity: 0.9; stroke-width: 0.85"/>
   </g>
   <g id="line2d_20">
    <path d="M 229.4879 128.0628 
L 229.4879 13.5612 
" clip-path="url(#p5320cde0a5)" style="fill: none; stroke-dasharray: 3.145,1.36; stroke-dashoffset: 0; stroke: #7b2d8b; stroke-opacity: 0.9; stroke-width: 0.85"/>
   </g>
   <g id="line2d_21">
    <path d="M 311.799124 128.0628 
L 311.799124 13.5612 
" clip-path="url(#p5320cde0a5)" style="fill: none; stroke-dasharray: 3.145,1.36; stroke-dashoffset: 0; stroke: #7b2d8b; stroke-opacity: 0.9; stroke-width: 0.85"/>
   </g>
   <g id="patch_3">
    <path d="M 29.510298 134.424 
L 29.510298 7.2 
" style="fill: none; stroke: #000000; stroke-width: 0.8; stroke-linejoin: miter; stroke-linecap: square"/>
   </g>
   <g id="patch_4">
    <path d="M 29.510298 134.424 
L 409.670298 134.424 
" style="fill: none; stroke: #000000; stroke-width: 0.8; stroke-linejoin: miter; stroke-linecap: square"/>
   </g>
   <g id="patch_5">
    <path d="M 32.27242 44.6604 
L 51.331059 44.6604 
L 51.331059 27.6972 
L 32.27242 27.6972 
z
" clip-path="url(#p5320cde0a5)" style="fill: #3a7fc1; stroke: #ffffff; stroke-width: 0.5; stroke-linejoin: miter"/>
   </g>
   <g id="patch_6">
    <path d="M 51.331059 44.6604 
L 116.332986 44.6604 
L 116.332986 27.6972 
L 51.331059 27.6972 
z
" clip-path="url(#p5320cde0a5)" style="fill: #2e8b57; stroke: #ffffff; stroke-width: 0.5; stroke-linejoin: miter"/>
   </g>
   <g id="patch_7">
    <path d="M 116.332986 44.6604 
L 132.537433 44.6604 
L 132.537433 27.6972 
L 116.332986 27.6972 
z
" clip-path="url(#p5320cde0a5)" style="fill: #cc5500; stroke: #ffffff; stroke-width: 0.5; stroke-linejoin: miter"/>
   </g>
   <g id="patch_8">
    <path d="M 132.537433 44.6604 
L 156.47582 44.6604 
L 156.47582 27.6972 
L 132.537433 27.6972 
z
" clip-path="url(#p5320cde0a5)" style="fill: #aaaaaa; stroke: #ffffff; stroke-width: 0.5; stroke-linejoin: miter"/>
   </g>
   <g id="patch_9">
    <path d="M 156.47582 44.6604 
L 171.85163 44.6604 
L 171.85163 27.6972 
L 156.47582 27.6972 
z
" clip-path="url(#p5320cde0a5)" style="fill: #3a7fc1; stroke: #ffffff; stroke-width: 0.5; stroke-linejoin: miter"/>
   </g>
   <g id="patch_10">
    <path d="M 171.85163 44.6604 
L 232.526234 44.6604 
L 232.526234 27.6972 
L 171.85163 27.6972 
z
" clip-path="url(#p5320cde0a5)" style="fill: #2e8b57; stroke: #ffffff; stroke-width: 0.5; stroke-linejoin: miter"/>
   </g>
   <g id="patch_11">
    <path d="M 232.526234 44.6604 
L 247.809974 44.6604 
L 247.809974 27.6972 
L 232.526234 27.6972 
z
" clip-path="url(#p5320cde0a5)" style="fill: #cc5500; stroke: #ffffff; stroke-width: 0.5; stroke-linejoin: miter"/>
   </g>
   <g id="patch_12">
    <path d="M 247.809974 44.6604 
L 294.581899 44.6604 
L 294.581899 27.6972 
L 247.809974 27.6972 
z
" clip-path="url(#p5320cde0a5)" style="fill: #aaaaaa; stroke: #ffffff; stroke-width: 0.5; stroke-linejoin: miter"/>
   </g>
   <g id="patch_13">
    <path d="M 294.581899 44.6604 
L 311.799124 44.6604 
L 311.799124 27.6972 
L 294.581899 27.6972 
z
" clip-path="url(#p5320cde0a5)" style="fill: #3a7fc1; stroke: #ffffff; stroke-width: 0.5; stroke-linejoin: miter"/>
   </g>
   <g id="patch_14">
    <path d="M 311.799124 44.6604 
L 393.005498 44.6604 
L 393.005498 27.6972 
L 311.799124 27.6972 
z
" clip-path="url(#p5320cde0a5)" style="fill: #2e8b57; stroke: #ffffff; stroke-width: 0.5; stroke-linejoin: miter"/>
   </g>
   <g id="patch_15">
    <path d="M 393.005498 44.6604 
L 406.908177 44.6604 
L 406.908177 27.6972 
L 393.005498 27.6972 
z
" clip-path="url(#p5320cde0a5)" style="fill: #cc5500; stroke: #ffffff; stroke-width: 0.5; stroke-linejoin: miter"/>
   </g>
   <g id="patch_16">
    <path d="M 94.236014 80.0004 
L 113.202582 80.0004 
L 113.202582 63.0372 
L 94.236014 63.0372 
z
" clip-path="url(#p5320cde0a5)" style="fill: #3a7fc1; stroke: #ffffff; stroke-width: 0.5; stroke-linejoin: miter"/>
   </g>
   <g id="patch_17">
    <path d="M 113.202582 80.0004 
L 175.810671 80.0004 
L 175.810671 63.0372 
L 113.202582 63.0372 
z
" clip-path="url(#p5320cde0a5)" style="fill: #2e8b57; stroke: #ffffff; stroke-width: 0.5; stroke-linejoin: miter"/>
   </g>
   <g id="patch_18">
    <path d="M 175.810671 80.0004 
L 192.107188 80.0004 
L 192.107188 63.0372 
L 175.810671 63.0372 
z
" clip-path="url(#p5320cde0a5)" style="fill: #cc5500; stroke: #ffffff; stroke-width: 0.5; stroke-linejoin: miter"/>
   </g>
   <g id="patch_19">
    <path d="M 192.107188 80.0004 
L 212.178605 80.0004 
L 212.178605 63.0372 
L 192.107188 63.0372 
z
" clip-path="url(#p5320cde0a5)" style="fill: #aaaaaa; stroke: #ffffff; stroke-width: 0.5; stroke-linejoin: miter"/>
   </g>
   <g id="patch_20">
    <path d="M 212.178605 80.0004 
L 229.4879 80.0004 
L 229.4879 63.0372 
L 212.178605 63.0372 
z
" clip-path="url(#p5320cde0a5)" style="fill: #3a7fc1; stroke: #ffffff; stroke-width: 0.5; stroke-linejoin: miter"/>
   </g>
   <g id="patch_21">
    <path d="M 229.4879 80.0004 
L 314.837457 80.0004 
L 314.837457 63.0372 
L 229.4879 63.0372 
z
" clip-path="url(#p5320cde0a5)" style="fill: #2e8b57; stroke: #ffffff; stroke-width: 0.5; stroke-linejoin: miter"/>
   </g>
   <g id="patch_22">
    <path d="M 314.837457 80.0004 
L 330.949833 80.0004 
L 330.949833 63.0372 
L 314.837457 63.0372 
z
" clip-path="url(#p5320cde0a5)" style="fill: #cc5500; stroke: #ffffff; stroke-width: 0.5; stroke-linejoin: miter"/>
   </g>
   <g id="patch_23">
    <path d="M 51.331059 115.3404 
L 393.005498 115.3404 
L 393.005498 98.3772 
L 51.331059 98.3772 
z
" clip-path="url(#p5320cde0a5)" style="fill: #f4c430; stroke: #ffffff; stroke-width: 0.5; stroke-linejoin: miter"/>
   </g>
   <g id="patch_24">
    <path d="M 113.202582 44.6604 
L 116.332986 44.6604 
L 116.332986 27.6972 
L 113.202582 27.6972 
z
" clip-path="url(#p5320cde0a5)" style="fill: #7b2d8b; stroke: #ffffff; stroke-width: 0.5; stroke-linejoin: miter"/>
   </g>
   <g id="patch_25">
    <path d="M 113.202582 80.0004 
L 116.332986 80.0004 
L 116.332986 63.0372 
L 113.202582 63.0372 
z
" clip-path="url(#p5320cde0a5)" style="fill: #7b2d8b; stroke: #ffffff; stroke-width: 0.5; stroke-linejoin: miter"/>
   </g>
   <g id="patch_26">
    <path d="M 171.85163 80.0004 
L 175.810671 80.0004 
L 175.810671 63.0372 
L 171.85163 63.0372 
z
" clip-path="url(#p5320cde0a5)" style="fill: #7b2d8b; stroke: #ffffff; stroke-width: 0.5; stroke-linejoin: miter"/>
   </g>
   <g id="patch_27">
    <path d="M 171.85163 44.6604 
L 175.810671 44.6604 
L 175.810671 27.6972 
L 171.85163 27.6972 
z
" clip-path="url(#p5320cde0a5)" style="fill: #7b2d8b; stroke: #ffffff; stroke-width: 0.5; stroke-linejoin: miter"/>
   </g>
   <g id="patch_28">
    <path d="M 229.4879 44.6604 
L 232.526234 44.6604 
L 232.526234 27.6972 
L 229.4879 27.6972 
z
" clip-path="url(#p5320cde0a5)" style="fill: #7b2d8b; stroke: #ffffff; stroke-width: 0.5; stroke-linejoin: miter"/>
   </g>
   <g id="patch_29">
    <path d="M 229.4879 80.0004 
L 232.526234 80.0004 
L 232.526234 63.0372 
L 229.4879 63.0372 
z
" clip-path="url(#p5320cde0a5)" style="fill: #7b2d8b; stroke: #ffffff; stroke-width: 0.5; stroke-linejoin: miter"/>
   </g>
   <g id="patch_30">
    <path d="M 311.799124 80.0004 
L 314.837457 80.0004 
L 314.837457 63.0372 
L 311.799124 63.0372 
z
" clip-path="url(#p5320cde0a5)" style="fill: #7b2d8b; stroke: #ffffff; stroke-width: 0.5; stroke-linejoin: miter"/>
   </g>
   <g id="patch_31">
    <path d="M 311.799124 44.6604 
L 314.837457 44.6604 
L 314.837457 27.6972 
L 311.799124 27.6972 
z
" clip-path="url(#p5320cde0a5)" style="fill: #7b2d8b; stroke: #ffffff; stroke-width: 0.5; stroke-linejoin: miter"/>
   </g>
   <g id="text_12">
    <g clip-path="url(#p5320cde0a5)">
     <!-- 3:27 -->
     <g style="fill: #ffffff" transform="translate(35.064864 37.834425) scale(0.06 -0.06)">
      <defs>
       <path id="DejaVuSerif-37" d="M 3609 4347 
L 1784 0 
L 1319 0 
L 3059 4153 
L 903 4153 
L 903 3578 
L 538 3578 
L 538 4666 
L 3609 4666 
L 3609 4347 
z
" transform="scale(0.015625)"/>
      </defs>
      <use xlink:href="#DejaVuSerif-33"/>
      <use xlink:href="#DejaVuSerif-3a" transform="translate(63.623047 0)"/>
      <use xlink:href="#DejaVuSerif-32" transform="translate(97.314453 0)"/>
      <use xlink:href="#DejaVuSerif-37" transform="translate(160.9375 0)"/>
     </g>
    </g>
   </g>
   <g id="text_13">
    <g clip-path="url(#p5320cde0a5)">
     <!-- 11:46 -->
     <g style="fill: #ffffff" transform="translate(75.186398 37.834425) scale(0.06 -0.06)">
      <use xlink:href="#DejaVuSerif-31"/>
      <use xlink:href="#DejaVuSerif-31" transform="translate(63.623047 0)"/>
      <use xlink:href="#DejaVuSerif-3a" transform="translate(127.246094 0)"/>
      <use xlink:href="#DejaVuSerif-34" transform="translate(160.9375 0)"/>
      <use xlink:href="#DejaVuSerif-36" transform="translate(224.560547 0)"/>
     </g>
    </g>
   </g>
   <g id="text_14">
    <g clip-path="url(#p5320cde0a5)">
     <!-- 2:56 -->
     <g style="fill: #ffffff" transform="translate(117.698335 37.834425) scale(0.06 -0.06)">
      <use xlink:href="#DejaVuSerif-32"/>
      <use xlink:href="#DejaVuSerif-3a" transform="translate(63.623047 0)"/>
      <use xlink:href="#DejaVuSerif-35" transform="translate(97.314453 0)"/>
      <use xlink:href="#DejaVuSerif-36" transform="translate(160.9375 0)"/>
     </g>
    </g>
   </g>
   <g id="text_15">
    <g clip-path="url(#p5320cde0a5)">
     <!-- 4:20 -->
     <g style="fill: #333333" transform="translate(137.769752 37.834425) scale(0.06 -0.06)">
      <use xlink:href="#DejaVuSerif-34"/>
      <use xlink:href="#DejaVuSerif-3a" transform="translate(63.623047 0)"/>
      <use xlink:href="#DejaVuSerif-32" transform="translate(97.314453 0)"/>
      <use xlink:href="#DejaVuSerif-30" transform="translate(160.9375 0)"/>
     </g>
    </g>
   </g>
   <g id="text_16">
    <g clip-path="url(#p5320cde0a5)">
     <!-- 2:47 -->
     <g style="fill: #ffffff" transform="translate(157.42685 37.834425) scale(0.06 -0.06)">
      <use xlink:href="#DejaVuSerif-32"/>
      <use xlink:href="#DejaVuSerif-3a" transform="translate(63.623047 0)"/>
      <use xlink:href="#DejaVuSerif-34" transform="translate(97.314453 0)"/>
      <use xlink:href="#DejaVuSerif-37" transform="translate(160.9375 0)"/>
     </g>
    </g>
   </g>
   <g id="text_17">
    <g clip-path="url(#p5320cde0a5)">
     <!-- 10:59 -->
     <g style="fill: #ffffff" transform="translate(193.543307 37.834425) scale(0.06 -0.06)">
      <defs>
       <path id="DejaVuSerif-39" d="M 2994 2091 
Q 2784 1856 2512 1740 
Q 2241 1625 1900 1625 
Q 1206 1625 804 2044 
Q 403 2463 403 3188 
Q 403 3897 839 4323 
Q 1275 4750 2003 4750 
Q 2794 4750 3217 4161 
Q 3641 3572 3641 2478 
Q 3641 1253 3137 581 
Q 2634 -91 1722 -91 
Q 1475 -91 1203 -44 
Q 931 3 647 97 
L 647 872 
L 997 872 
Q 1038 556 1241 387 
Q 1444 219 1784 219 
Q 2391 219 2687 676 
Q 2984 1134 2994 2091 
z
M 1978 4441 
Q 1534 4441 1298 4117 
Q 1063 3794 1063 3188 
Q 1063 2581 1298 2256 
Q 1534 1931 1978 1931 
Q 2422 1931 2658 2245 
Q 2894 2559 2894 3150 
Q 2894 3772 2656 4106 
Q 2419 4441 1978 4441 
z
" transform="scale(0.015625)"/>
      </defs>
      <use xlink:href="#DejaVuSerif-31"/>
      <use xlink:href="#DejaVuSerif-30" transform="translate(63.623047 0)"/>
      <use xlink:href="#DejaVuSerif-3a" transform="translate(127.246094 0)"/>
      <use xlink:href="#DejaVuSerif-35" transform="translate(160.9375 0)"/>
      <use xlink:href="#DejaVuSerif-39" transform="translate(224.560547 0)"/>
     </g>
    </g>
   </g>
   <g id="text_18">
    <g clip-path="url(#p5320cde0a5)">
     <!-- 2:46 -->
     <g style="fill: #ffffff" transform="translate(233.431229 37.834425) scale(0.06 -0.06)">
      <use xlink:href="#DejaVuSerif-32"/>
      <use xlink:href="#DejaVuSerif-3a" transform="translate(63.623047 0)"/>
      <use xlink:href="#DejaVuSerif-34" transform="translate(97.314453 0)"/>
      <use xlink:href="#DejaVuSerif-36" transform="translate(160.9375 0)"/>
     </g>
    </g>
   </g>
   <g id="text_19">
    <g clip-path="url(#p5320cde0a5)">
     <!-- 8:28 -->
     <g style="fill: #333333" transform="translate(264.459061 37.834425) scale(0.06 -0.06)">
      <defs>
       <path id="DejaVuSerif-38" d="M 2981 1275 
Q 2981 1775 2732 2051 
Q 2484 2328 2034 2328 
Q 1584 2328 1336 2051 
Q 1088 1775 1088 1275 
Q 1088 772 1336 495 
Q 1584 219 2034 219 
Q 2484 219 2732 495 
Q 2981 772 2981 1275 
z
M 2853 3541 
Q 2853 3966 2637 4203 
Q 2422 4441 2034 4441 
Q 1650 4441 1433 4203 
Q 1216 3966 1216 3541 
Q 1216 3113 1433 2875 
Q 1650 2638 2034 2638 
Q 2422 2638 2637 2875 
Q 2853 3113 2853 3541 
z
M 2516 2484 
Q 3047 2413 3344 2092 
Q 3641 1772 3641 1275 
Q 3641 619 3225 264 
Q 2809 -91 2034 -91 
Q 1263 -91 845 264 
Q 428 619 428 1275 
Q 428 1772 725 2092 
Q 1022 2413 1556 2484 
Q 1084 2569 832 2842 
Q 581 3116 581 3541 
Q 581 4103 968 4426 
Q 1356 4750 2034 4750 
Q 2713 4750 3100 4426 
Q 3488 4103 3488 3541 
Q 3488 3116 3236 2842 
Q 2984 2569 2516 2484 
z
" transform="scale(0.015625)"/>
      </defs>
      <use xlink:href="#DejaVuSerif-38"/>
      <use xlink:href="#DejaVuSerif-3a" transform="translate(63.623047 0)"/>
      <use xlink:href="#DejaVuSerif-32" transform="translate(97.314453 0)"/>
      <use xlink:href="#DejaVuSerif-38" transform="translate(160.9375 0)"/>
     </g>
    </g>
   </g>
   <g id="text_20">
    <g clip-path="url(#p5320cde0a5)">
     <!-- 3:07 -->
     <g style="fill: #ffffff" transform="translate(296.453636 37.834425) scale(0.06 -0.06)">
      <use xlink:href="#DejaVuSerif-33"/>
      <use xlink:href="#DejaVuSerif-3a" transform="translate(63.623047 0)"/>
      <use xlink:href="#DejaVuSerif-30" transform="translate(97.314453 0)"/>
      <use xlink:href="#DejaVuSerif-37" transform="translate(160.9375 0)"/>
     </g>
    </g>
   </g>
   <g id="text_21">
    <g clip-path="url(#p5320cde0a5)">
     <!-- 14:42 -->
     <g style="fill: #ffffff" transform="translate(343.756686 37.834425) scale(0.06 -0.06)">
      <use xlink:href="#DejaVuSerif-31"/>
      <use xlink:href="#DejaVuSerif-34" transform="translate(63.623047 0)"/>
      <use xlink:href="#DejaVuSerif-3a" transform="translate(127.246094 0)"/>
      <use xlink:href="#DejaVuSerif-34" transform="translate(160.9375 0)"/>
      <use xlink:href="#DejaVuSerif-32" transform="translate(224.560547 0)"/>
     </g>
    </g>
   </g>
   <g id="text_22">
    <g clip-path="url(#p5320cde0a5)">
     <!-- 2:31 -->
     <g style="fill: #ffffff" transform="translate(393.219962 37.834425) scale(0.06 -0.06)">
      <use xlink:href="#DejaVuSerif-32"/>
      <use xlink:href="#DejaVuSerif-3a" transform="translate(63.623047 0)"/>
      <use xlink:href="#DejaVuSerif-33" transform="translate(97.314453 0)"/>
      <use xlink:href="#DejaVuSerif-31" transform="translate(160.9375 0)"/>
     </g>
    </g>
   </g>
   <g id="text_23">
    <g clip-path="url(#p5320cde0a5)">
     <!-- 3:26 -->
     <g style="fill: #ffffff" transform="translate(96.982423 73.174425) scale(0.06 -0.06)">
      <use xlink:href="#DejaVuSerif-33"/>
      <use xlink:href="#DejaVuSerif-3a" transform="translate(63.623047 0)"/>
      <use xlink:href="#DejaVuSerif-32" transform="translate(97.314453 0)"/>
      <use xlink:href="#DejaVuSerif-36" transform="translate(160.9375 0)"/>
     </g>
    </g>
   </g>
   <g id="text_24">
    <g clip-path="url(#p5320cde0a5)">
     <!-- 11:20 -->
     <g style="fill: #ffffff" transform="translate(135.861002 73.174425) scale(0.06 -0.06)">
      <use xlink:href="#DejaVuSerif-31"/>
      <use xlink:href="#DejaVuSerif-31" transform="translate(63.623047 0)"/>
      <use xlink:href="#DejaVuSerif-3a" transform="translate(127.246094 0)"/>
      <use xlink:href="#DejaVuSerif-32" transform="translate(160.9375 0)"/>
      <use xlink:href="#DejaVuSerif-30" transform="translate(224.560547 0)"/>
     </g>
    </g>
   </g>
   <g id="text_25">
    <g clip-path="url(#p5320cde0a5)">
     <!-- 2:57 -->
     <g style="fill: #ffffff" transform="translate(177.222055 73.174425) scale(0.06 -0.06)">
      <use xlink:href="#DejaVuSerif-32"/>
      <use xlink:href="#DejaVuSerif-3a" transform="translate(63.623047 0)"/>
      <use xlink:href="#DejaVuSerif-35" transform="translate(97.314453 0)"/>
      <use xlink:href="#DejaVuSerif-37" transform="translate(160.9375 0)"/>
     </g>
    </g>
   </g>
   <g id="text_26">
    <g clip-path="url(#p5320cde0a5)">
     <!-- 3:38 -->
     <g style="fill: #333333" transform="translate(195.406022 73.174425) scale(0.06 -0.06)">
      <use xlink:href="#DejaVuSerif-33"/>
      <use xlink:href="#DejaVuSerif-3a" transform="translate(63.623047 0)"/>
      <use xlink:href="#DejaVuSerif-33" transform="translate(97.314453 0)"/>
      <use xlink:href="#DejaVuSerif-38" transform="translate(160.9375 0)"/>
     </g>
    </g>
   </g>
   <g id="text_27">
    <g clip-path="url(#p5320cde0a5)">
     <!-- 3:08 -->
     <g style="fill: #ffffff" transform="translate(214.096378 73.174425) scale(0.06 -0.06)">
      <use xlink:href="#DejaVuSerif-33"/>
      <use xlink:href="#DejaVuSerif-3a" transform="translate(63.623047 0)"/>
      <use xlink:href="#DejaVuSerif-30" transform="translate(97.314453 0)"/>
      <use xlink:href="#DejaVuSerif-38" transform="translate(160.9375 0)"/>
     </g>
    </g>
   </g>
   <g id="text_28">
    <g clip-path="url(#p5320cde0a5)">
     <!-- 15:27 -->
     <g style="fill: #ffffff" transform="translate(263.517054 73.174425) scale(0.06 -0.06)">
      <use xlink:href="#DejaVuSerif-31"/>
      <use xlink:href="#DejaVuSerif-35" transform="translate(63.623047 0)"/>
      <use xlink:href="#DejaVuSerif-3a" transform="translate(127.246094 0)"/>
      <use xlink:href="#DejaVuSerif-32" transform="translate(160.9375 0)"/>
      <use xlink:href="#DejaVuSerif-37" transform="translate(224.560547 0)"/>
     </g>
    </g>
   </g>
   <g id="text_29">
    <g clip-path="url(#p5320cde0a5)">
     <!-- 2:55 -->
     <g style="fill: #ffffff" transform="translate(316.15677 73.174425) scale(0.06 -0.06)">
      <use xlink:href="#DejaVuSerif-32"/>
      <use xlink:href="#DejaVuSerif-3a" transform="translate(63.623047 0)"/>
      <use xlink:href="#DejaVuSerif-35" transform="translate(97.314453 0)"/>
      <use xlink:href="#DejaVuSerif-35" transform="translate(160.9375 0)"/>
     </g>
    </g>
   </g>
   <g id="text_30">
    <!-- Uninterrupted aerial monitoring  (≈ 62 min) -->
    <g style="fill: #4a3800" transform="translate(134.5857 108.740597) scale(0.07 -0.07)">
     <defs>
      <path id="DejaVuSerif-Bold-55" d="M 813 4288 
L 219 4288 
L 219 4666 
L 2619 4666 
L 2619 4288 
L 2022 4288 
L 2022 1953 
Q 2022 1081 2294 732 
Q 2566 384 3225 384 
Q 3869 384 4139 736 
Q 4409 1088 4409 1953 
L 4409 4288 
L 3816 4288 
L 3816 4666 
L 5441 4666 
L 5441 4288 
L 4844 4288 
L 4844 1888 
Q 4844 819 4381 364 
Q 3919 -91 2828 -91 
Q 1744 -91 1278 368 
Q 813 828 813 1894 
L 813 4288 
z
" transform="scale(0.015625)"/>
      <path id="DejaVuSerif-Bold-6e" d="M 219 0 
L 219 378 
L 691 378 
L 691 2944 
L 219 2944 
L 219 3322 
L 1797 3322 
L 1797 2853 
Q 1997 3150 2253 3281 
Q 2509 3413 2900 3413 
Q 3459 3413 3745 3083 
Q 4031 2753 4031 2113 
L 4031 378 
L 4506 378 
L 4506 0 
L 2522 0 
L 2522 378 
L 2925 378 
L 2925 2144 
Q 2925 2566 2817 2730 
Q 2709 2894 2444 2894 
Q 2109 2894 1953 2648 
Q 1797 2403 1797 1869 
L 1797 378 
L 2203 378 
L 2203 0 
L 219 0 
z
" transform="scale(0.015625)"/>
      <path id="DejaVuSerif-Bold-69" d="M 588 4263 
Q 588 4516 763 4689 
Q 938 4863 1191 4863 
Q 1438 4863 1611 4689 
Q 1784 4516 1784 4263 
Q 1784 4016 1611 3842 
Q 1438 3669 1191 3669 
Q 938 3669 763 3841 
Q 588 4013 588 4263 
z
M 1797 378 
L 2272 378 
L 2272 0 
L 219 0 
L 219 378 
L 691 378 
L 691 2944 
L 219 2944 
L 219 3322 
L 1797 3322 
L 1797 378 
z
" transform="scale(0.015625)"/>
      <path id="DejaVuSerif-Bold-74" d="M 634 2944 
L 153 2944 
L 153 3322 
L 634 3322 
L 634 4353 
L 1741 4353 
L 1741 3322 
L 2663 3322 
L 2663 2944 
L 1741 2944 
L 1741 909 
Q 1741 475 1809 369 
Q 1878 263 2059 263 
Q 2259 263 2356 397 
Q 2453 531 2459 813 
L 2925 813 
Q 2897 313 2651 111 
Q 2406 -91 1806 -91 
Q 1122 -91 878 123 
Q 634 338 634 909 
L 634 2944 
z
" transform="scale(0.015625)"/>
      <path id="DejaVuSerif-Bold-65" d="M 2566 1875 
Q 2566 2531 2444 2795 
Q 2322 3059 2028 3059 
Q 1744 3059 1620 2800 
Q 1497 2541 1497 1931 
L 1497 1875 
L 2566 1875 
z
M 3781 1503 
L 1497 1503 
L 1497 1478 
Q 1497 834 1690 548 
Q 1884 263 2316 263 
Q 2675 263 2897 453 
Q 3119 644 3181 1006 
L 3700 1006 
Q 3566 441 3166 175 
Q 2766 -91 2047 -91 
Q 1184 -91 723 364 
Q 263 819 263 1663 
Q 263 2488 734 2950 
Q 1206 3413 2047 3413 
Q 2872 3413 3312 2927 
Q 3753 2441 3781 1503 
z
" transform="scale(0.015625)"/>
      <path id="DejaVuSerif-Bold-72" d="M 3438 3359 
L 3438 2369 
L 3084 2369 
Q 3066 2634 2941 2764 
Q 2816 2894 2578 2894 
Q 2216 2894 2006 2575 
Q 1797 2256 1797 1691 
L 1797 378 
L 2400 378 
L 2400 0 
L 219 0 
L 219 378 
L 691 378 
L 691 2944 
L 184 2944 
L 184 3322 
L 1797 3322 
L 1797 2731 
Q 1959 3078 2226 3245 
Q 2494 3413 2881 3413 
Q 2978 3413 3117 3398 
Q 3256 3384 3438 3359 
z
" transform="scale(0.015625)"/>
      <path id="DejaVuSerif-Bold-75" d="M 3963 3322 
L 3963 378 
L 4434 378 
L 4434 0 
L 2853 0 
L 2853 469 
Q 2656 172 2400 40 
Q 2144 -91 1753 -91 
Q 1194 -91 908 239 
Q 622 569 622 1209 
L 622 2944 
L 147 2944 
L 147 3322 
L 1728 3322 
L 1728 1381 
Q 1728 763 1831 595 
Q 1934 428 2209 428 
Q 2544 428 2698 675 
Q 2853 922 2853 1459 
L 2853 2944 
L 2450 2944 
L 2450 3322 
L 3963 3322 
z
" transform="scale(0.015625)"/>
      <path id="DejaVuSerif-Bold-70" d="M 1728 1825 
L 1728 1497 
Q 1728 916 1876 656 
Q 2025 397 2356 397 
Q 2697 397 2836 672 
Q 2975 947 2975 1663 
Q 2975 2378 2836 2651 
Q 2697 2925 2356 2925 
Q 2025 2925 1876 2665 
Q 1728 2406 1728 1825 
z
M 622 2944 
L 147 2944 
L 147 3322 
L 1728 3322 
L 1728 2900 
Q 1869 3159 2106 3286 
Q 2344 3413 2694 3413 
Q 3403 3413 3811 2945 
Q 4219 2478 4219 1663 
Q 4219 847 3811 378 
Q 3403 -91 2694 -91 
Q 2344 -91 2106 36 
Q 1869 163 1728 422 
L 1728 -953 
L 2241 -953 
L 2241 -1331 
L 147 -1331 
L 147 -953 
L 622 -953 
L 622 2944 
z
" transform="scale(0.015625)"/>
      <path id="DejaVuSerif-Bold-64" d="M 2747 1497 
L 2747 1825 
Q 2747 2406 2597 2665 
Q 2447 2925 2119 2925 
Q 1775 2925 1636 2651 
Q 1497 2378 1497 1663 
Q 1497 947 1637 672 
Q 1778 397 2119 397 
Q 2447 397 2597 656 
Q 2747 916 2747 1497 
z
M 3853 378 
L 4325 378 
L 4325 0 
L 2747 0 
L 2747 422 
Q 2606 163 2367 36 
Q 2128 -91 1778 -91 
Q 1072 -91 667 378 
Q 263 847 263 1663 
Q 263 2481 667 2947 
Q 1072 3413 1778 3413 
Q 2128 3413 2367 3286 
Q 2606 3159 2747 2900 
L 2747 4488 
L 2272 4488 
L 2272 4863 
L 3853 4863 
L 3853 378 
z
" transform="scale(0.015625)"/>
      <path id="DejaVuSerif-Bold-20" transform="scale(0.015625)"/>
      <path id="DejaVuSerif-Bold-61" d="M 3525 2041 
L 3525 378 
L 4000 378 
L 4000 0 
L 2419 0 
L 2419 422 
Q 2200 159 1931 34 
Q 1663 -91 1319 -91 
Q 809 -91 536 182 
Q 263 456 263 966 
Q 263 1525 655 1803 
Q 1047 2081 1838 2081 
L 2419 2081 
L 2419 2278 
Q 2419 2681 2228 2873 
Q 2038 3066 1638 3066 
Q 1306 3066 1126 2930 
Q 947 2794 872 2484 
L 519 2484 
L 519 3200 
Q 816 3306 1134 3359 
Q 1453 3413 1806 3413 
Q 2697 3413 3111 3081 
Q 3525 2750 3525 2041 
z
M 2419 1044 
L 2419 1709 
L 2003 1709 
Q 1694 1709 1528 1540 
Q 1363 1372 1363 1056 
Q 1363 741 1483 584 
Q 1603 428 1850 428 
Q 2106 428 2262 597 
Q 2419 766 2419 1044 
z
" transform="scale(0.015625)"/>
      <path id="DejaVuSerif-Bold-6c" d="M 1797 378 
L 2272 378 
L 2272 0 
L 219 0 
L 219 378 
L 691 378 
L 691 4488 
L 219 4488 
L 219 4863 
L 1797 4863 
L 1797 378 
z
" transform="scale(0.015625)"/>
      <path id="DejaVuSerif-Bold-6d" d="M 3884 2778 
Q 4116 3109 4384 3261 
Q 4653 3413 5013 3413 
Q 5584 3413 5867 3089 
Q 6150 2766 6150 2113 
L 6150 378 
L 6625 378 
L 6625 0 
L 4647 0 
L 4647 378 
L 5044 378 
L 5044 1947 
Q 5044 2569 4948 2731 
Q 4853 2894 4594 2894 
Q 4300 2894 4137 2667 
Q 3975 2441 3975 2022 
L 3975 378 
L 4372 378 
L 4372 0 
L 2472 0 
L 2472 378 
L 2869 378 
L 2869 1947 
Q 2869 2569 2772 2731 
Q 2675 2894 2419 2894 
Q 2122 2894 1959 2667 
Q 1797 2441 1797 2022 
L 1797 378 
L 2194 378 
L 2194 0 
L 219 0 
L 219 378 
L 691 378 
L 691 2944 
L 219 2944 
L 219 3322 
L 1797 3322 
L 1797 2853 
Q 1991 3144 2241 3278 
Q 2491 3413 2834 3413 
Q 3241 3413 3494 3258 
Q 3747 3103 3884 2778 
z
" transform="scale(0.015625)"/>
      <path id="DejaVuSerif-Bold-6f" d="M 2138 263 
Q 2488 263 2630 563 
Q 2772 863 2772 1663 
Q 2772 2463 2631 2761 
Q 2491 3059 2138 3059 
Q 1784 3059 1640 2757 
Q 1497 2456 1497 1663 
Q 1497 869 1640 566 
Q 1784 263 2138 263 
z
M 2138 -91 
Q 1259 -91 761 376 
Q 263 844 263 1663 
Q 263 2484 761 2948 
Q 1259 3413 2138 3413 
Q 3019 3413 3516 2948 
Q 4013 2484 4013 1663 
Q 4013 844 3514 376 
Q 3016 -91 2138 -91 
z
" transform="scale(0.015625)"/>
      <path id="DejaVuSerif-Bold-67" d="M 3853 2944 
L 3853 44 
Q 3853 -656 3354 -1039 
Q 2856 -1422 1947 -1422 
Q 1616 -1422 1275 -1370 
Q 934 -1319 575 -1216 
L 575 -422 
L 928 -422 
Q 975 -750 1192 -909 
Q 1409 -1069 1813 -1069 
Q 2325 -1069 2536 -823 
Q 2747 -578 2747 44 
L 2747 422 
Q 2606 163 2367 36 
Q 2128 -91 1778 -91 
Q 1072 -91 667 378 
Q 263 847 263 1663 
Q 263 2481 667 2947 
Q 1072 3413 1778 3413 
Q 2128 3413 2367 3286 
Q 2606 3159 2747 2900 
L 2747 3322 
L 4325 3322 
L 4325 2944 
L 3853 2944 
z
M 2747 1825 
Q 2747 2406 2597 2665 
Q 2447 2925 2119 2925 
Q 1775 2925 1636 2651 
Q 1497 2378 1497 1663 
Q 1497 947 1637 672 
Q 1778 397 2119 397 
Q 2447 397 2597 656 
Q 2747 916 2747 1497 
L 2747 1825 
z
" transform="scale(0.015625)"/>
      <path id="DejaVuSerif-Bold-28" d="M 2694 -997 
Q 1641 -606 1122 122 
Q 603 850 603 1931 
Q 603 3013 1115 3731 
Q 1628 4450 2694 4863 
L 2694 4488 
Q 2200 4188 1983 3598 
Q 1766 3009 1766 1931 
Q 1766 856 1983 267 
Q 2200 -322 2694 -622 
L 2694 -997 
z
" transform="scale(0.015625)"/>
      <path id="DejaVuSerif-Bold-2248" d="M 4684 1947 
L 4684 1300 
Q 4394 1034 4101 904 
Q 3809 775 3494 775 
Q 3197 775 2722 956 
Q 2672 975 2641 988 
Q 2622 994 2581 1009 
Q 2044 1216 1741 1216 
Q 1500 1216 1239 1105 
Q 978 994 678 763 
L 678 1409 
Q 978 1678 1267 1804 
Q 1556 1931 1869 1931 
Q 2166 1931 2638 1753 
Q 2694 1731 2719 1722 
L 2766 1703 
Q 3306 1491 3622 1491 
Q 3863 1491 4123 1603 
Q 4384 1716 4684 1947 
z
M 4684 3250 
L 4684 2606 
Q 4394 2338 4101 2209 
Q 3809 2081 3494 2081 
Q 3197 2081 2725 2259 
Q 2672 2281 2644 2291 
Q 2622 2300 2581 2316 
Q 2044 2522 1741 2522 
Q 1500 2522 1239 2409 
Q 978 2297 678 2069 
L 678 2713 
Q 978 2981 1267 3109 
Q 1556 3238 1869 3238 
Q 2166 3238 2638 3059 
Q 2694 3038 2719 3028 
L 2766 3009 
Q 3306 2797 3622 2797 
Q 3863 2797 4123 2909 
Q 4384 3022 4684 3250 
z
" transform="scale(0.015625)"/>
      <path id="DejaVuSerif-Bold-36" d="M 1575 2766 
Q 1778 2928 2029 3009 
Q 2281 3091 2578 3091 
Q 3294 3091 3701 2672 
Q 4109 2253 4109 1522 
Q 4109 750 3650 329 
Q 3191 -91 2344 -91 
Q 1388 -91 895 486 
Q 403 1063 403 2181 
Q 403 3453 950 4101 
Q 1497 4750 2572 4750 
Q 2853 4750 3175 4703 
Q 3497 4656 3866 4563 
L 3866 3738 
L 3488 3738 
Q 3409 4056 3192 4220 
Q 2975 4384 2631 4384 
Q 2075 4384 1826 4003 
Q 1578 3622 1575 2766 
z
M 2272 275 
Q 2594 275 2731 548 
Q 2869 822 2869 1497 
Q 2869 2172 2731 2445 
Q 2594 2719 2272 2719 
Q 1950 2719 1814 2445 
Q 1678 2172 1678 1497 
Q 1678 822 1814 548 
Q 1950 275 2272 275 
z
" transform="scale(0.015625)"/>
      <path id="DejaVuSerif-Bold-32" d="M 844 3513 
L 469 3513 
L 469 4519 
Q 850 4634 1223 4692 
Q 1597 4750 1978 4750 
Q 2869 4750 3367 4386 
Q 3866 4022 3866 3372 
Q 3866 2909 3591 2542 
Q 3316 2175 2541 1672 
L 1241 819 
L 3450 819 
L 3450 1369 
L 3878 1369 
L 3878 0 
L 428 0 
L 428 763 
L 1119 1241 
Q 2003 1850 2297 2278 
Q 2591 2706 2591 3278 
Q 2591 3819 2367 4101 
Q 2144 4384 1716 4384 
Q 1347 4384 1125 4161 
Q 903 3938 844 3513 
z
" transform="scale(0.015625)"/>
      <path id="DejaVuSerif-Bold-29" d="M 325 -997 
L 325 -622 
Q 819 -322 1036 267 
Q 1253 856 1253 1931 
Q 1253 3009 1036 3598 
Q 819 4188 325 4488 
L 325 4863 
Q 1391 4450 1905 3731 
Q 2419 3013 2419 1931 
Q 2419 850 1898 122 
Q 1378 -606 325 -997 
z
" transform="scale(0.015625)"/>
     </defs>
     <use xlink:href="#DejaVuSerif-Bold-55"/>
     <use xlink:href="#DejaVuSerif-Bold-6e" transform="translate(87.207031 0)"/>
     <use xlink:href="#DejaVuSerif-Bold-69" transform="translate(159.912109 0)"/>
     <use xlink:href="#DejaVuSerif-Bold-6e" transform="translate(197.900391 0)"/>
     <use xlink:href="#DejaVuSerif-Bold-74" transform="translate(270.605469 0)"/>
     <use xlink:href="#DejaVuSerif-Bold-65" transform="translate(316.796875 0)"/>
     <use xlink:href="#DejaVuSerif-Bold-72" transform="translate(380.419922 0)"/>
     <use xlink:href="#DejaVuSerif-Bold-72" transform="translate(433.105469 0)"/>
     <use xlink:href="#DejaVuSerif-Bold-75" transform="translate(485.791016 0)"/>
     <use xlink:href="#DejaVuSerif-Bold-70" transform="translate(558.496094 0)"/>
     <use xlink:href="#DejaVuSerif-Bold-74" transform="translate(628.417969 0)"/>
     <use xlink:href="#DejaVuSerif-Bold-65" transform="translate(674.609375 0)"/>
     <use xlink:href="#DejaVuSerif-Bold-64" transform="translate(738.232422 0)"/>
     <use xlink:href="#DejaVuSerif-Bold-20" transform="translate(808.154297 0)"/>
     <use xlink:href="#DejaVuSerif-Bold-61" transform="translate(842.96875 0)"/>
     <use xlink:href="#DejaVuSerif-Bold-65" transform="translate(907.763672 0)"/>
     <use xlink:href="#DejaVuSerif-Bold-72" transform="translate(971.386719 0)"/>
     <use xlink:href="#DejaVuSerif-Bold-69" transform="translate(1024.072266 0)"/>
     <use xlink:href="#DejaVuSerif-Bold-61" transform="translate(1062.060547 0)"/>
     <use xlink:href="#DejaVuSerif-Bold-6c" transform="translate(1126.855469 0)"/>
     <use xlink:href="#DejaVuSerif-Bold-20" transform="translate(1164.84375 0)"/>
     <use xlink:href="#DejaVuSerif-Bold-6d" transform="translate(1199.658203 0)"/>
     <use xlink:href="#DejaVuSerif-Bold-6f" transform="translate(1305.46875 0)"/>
     <use xlink:href="#DejaVuSerif-Bold-6e" transform="translate(1372.167969 0)"/>
     <use xlink:href="#DejaVuSerif-Bold-69" transform="translate(1444.873047 0)"/>
     <use xlink:href="#DejaVuSerif-Bold-74" transform="translate(1482.861328 0)"/>
     <use xlink:href="#DejaVuSerif-Bold-6f" transform="translate(1529.052734 0)"/>
     <use xlink:href="#DejaVuSerif-Bold-72" transform="translate(1595.751953 0)"/>
     <use xlink:href="#DejaVuSerif-Bold-69" transform="translate(1648.4375 0)"/>
     <use xlink:href="#DejaVuSerif-Bold-6e" transform="translate(1686.425781 0)"/>
     <use xlink:href="#DejaVuSerif-Bold-67" transform="translate(1759.130859 0)"/>
     <use xlink:href="#DejaVuSerif-Bold-20" transform="translate(1829.052734 0)"/>
     <use xlink:href="#DejaVuSerif-Bold-20" transform="translate(1863.867188 0)"/>
     <use xlink:href="#DejaVuSerif-Bold-28" transform="translate(1898.681641 0)"/>
     <use xlink:href="#DejaVuSerif-Bold-2248" transform="translate(1945.996094 0)"/>
     <use xlink:href="#DejaVuSerif-Bold-20" transform="translate(2029.785156 0)"/>
     <use xlink:href="#DejaVuSerif-Bold-36" transform="translate(2064.599609 0)"/>
     <use xlink:href="#DejaVuSerif-Bold-32" transform="translate(2134.179688 0)"/>
     <use xlink:href="#DejaVuSerif-Bold-20" transform="translate(2203.759766 0)"/>
     <use xlink:href="#DejaVuSerif-Bold-6d" transform="translate(2238.574219 0)"/>
     <use xlink:href="#DejaVuSerif-Bold-69" transform="translate(2344.384766 0)"/>
     <use xlink:href="#DejaVuSerif-Bold-6e" transform="translate(2382.373047 0)"/>
     <use xlink:href="#DejaVuSerif-Bold-29" transform="translate(2455.078125 0)"/>
    </g>
   </g>
   <g id="text_31">
    <!-- Cycle 1 -->
    <g style="fill: #1d5c38" transform="translate(70.686241 24.374887) scale(0.07 -0.07)">
     <defs>
      <path id="DejaVuSerif-Italic-43" d="M 4300 1234 
Q 3966 581 3414 245 
Q 2863 -91 2119 -91 
Q 1663 -91 1303 65 
Q 944 222 700 525 
Q 419 875 334 1320 
Q 250 1766 359 2328 
Q 572 3416 1330 4083 
Q 2088 4750 3116 4750 
Q 3497 4750 3908 4650 
Q 4319 4550 4775 4347 
L 4569 3272 
L 4216 3272 
Q 4213 3859 3919 4137 
Q 3625 4416 2997 4416 
Q 2250 4416 1762 3886 
Q 1275 3356 1075 2328 
Q 875 1303 1156 773 
Q 1438 244 2184 244 
Q 2706 244 3092 492 
Q 3478 741 3725 1234 
L 4300 1234 
z
" transform="scale(0.015625)"/>
      <path id="DejaVuSerif-Italic-79" d="M 3681 3294 
Q 3372 1506 2828 563 
Q 2031 -822 1391 -1238 
Q 1106 -1422 356 -1422 
Q 209 -1422 60 -1397 
Q -88 -1372 -238 -1325 
L -113 -691 
L 181 -691 
Q 175 -741 175 -788 
Q 175 -919 231 -994 
Q 309 -1100 513 -1100 
Q 1063 -1100 1541 -622 
L 756 2988 
L 378 2988 
L 444 3322 
L 1303 3322 
L 2041 25 
Q 2544 778 2666 1088 
Q 3059 2059 3138 2959 
L 2759 2959 
L 2825 3294 
L 3681 3294 
z
" transform="scale(0.015625)"/>
      <path id="DejaVuSerif-Italic-63" d="M 3163 997 
Q 2938 466 2536 187 
Q 2134 -91 1584 -91 
Q 859 -91 513 388 
Q 272 722 272 1203 
Q 272 1419 319 1663 
Q 475 2459 1008 2936 
Q 1541 3413 2266 3413 
Q 2581 3413 2879 3339 
Q 3178 3266 3463 3116 
L 3300 2266 
L 2966 2266 
Q 2966 2309 2966 2347 
Q 2966 2722 2803 2903 
Q 2622 3103 2213 3103 
Q 1747 3103 1439 2742 
Q 1131 2381 991 1663 
Q 928 1334 928 1078 
Q 928 778 1016 581 
Q 1181 219 1650 219 
Q 2022 219 2281 412 
Q 2541 606 2700 997 
L 3163 997 
z
" transform="scale(0.015625)"/>
      <path id="DejaVuSerif-Italic-6c" d="M 903 331 
L 1447 331 
L 1384 0 
L 266 0 
L 1147 4531 
L 594 4531 
L 656 4863 
L 1784 4863 
L 903 331 
z
" transform="scale(0.015625)"/>
      <path id="DejaVuSerif-Italic-65" d="M 938 1275 
Q 925 1156 925 1050 
Q 925 756 1031 563 
Q 1216 219 1709 219 
Q 2072 219 2250 328 
Q 2569 525 2644 778 
L 3066 778 
Q 2941 381 2475 103 
Q 2150 -91 1506 -91 
Q 863 -91 516 388 
Q 272 722 272 1206 
Q 272 1419 319 1659 
Q 472 2450 1000 2931 
Q 1528 3413 2278 3413 
Q 3500 3413 3500 2547 
Q 3500 1913 2859 1603 
Q 2206 1288 938 1275 
z
M 2541 1975 
Q 2891 2181 2891 2569 
Q 2891 3103 2181 3103 
Q 1763 3103 1472 2784 
Q 1181 2466 1003 1606 
Q 2006 1653 2541 1975 
z
" transform="scale(0.015625)"/>
      <path id="DejaVuSerif-Italic-20" transform="scale(0.015625)"/>
      <path id="DejaVuSerif-Italic-31" d="M 447 0 
L 513 331 
L 1325 331 
L 2078 4213 
L 1019 3603 
L 1100 4013 
L 2381 4750 
L 2813 4750 
L 1953 331 
L 2766 331 
L 2700 0 
L 447 0 
z
" transform="scale(0.015625)"/>
     </defs>
     <use xlink:href="#DejaVuSerif-Italic-43"/>
     <use xlink:href="#DejaVuSerif-Italic-79" transform="translate(76.513672 0)"/>
     <use xlink:href="#DejaVuSerif-Italic-63" transform="translate(133.007812 0)"/>
     <use xlink:href="#DejaVuSerif-Italic-6c" transform="translate(189.013672 0)"/>
     <use xlink:href="#DejaVuSerif-Italic-65" transform="translate(220.996094 0)"/>
     <use xlink:href="#DejaVuSerif-Italic-20" transform="translate(280.175781 0)"/>
     <use xlink:href="#DejaVuSerif-Italic-31" transform="translate(311.962891 0)"/>
    </g>
   </g>
   <g id="text_32">
    <!-- Cycle 2 -->
    <g style="fill: #1d5c38" transform="translate(189.043151 24.374887) scale(0.07 -0.07)">
     <defs>
      <path id="DejaVuSerif-Italic-32" d="M 1050 3553 
L 700 3553 
L 863 4384 
Q 1231 4563 1589 4656 
Q 1947 4750 2272 4750 
Q 3000 4750 3353 4397 
Q 3706 4044 3588 3438 
Q 3456 2753 2313 1800 
Q 2225 1728 2178 1691 
L 772 513 
L 2719 513 
L 2831 1088 
L 3197 1088 
L 2984 0 
L -25 0 
L 41 341 
L 1731 1753 
Q 2291 2222 2567 2614 
Q 2844 3006 2928 3438 
Q 3019 3909 2825 4175 
Q 2631 4441 2200 4441 
Q 1753 4441 1467 4219 
Q 1181 3997 1050 3553 
z
" transform="scale(0.015625)"/>
     </defs>
     <use xlink:href="#DejaVuSerif-Italic-43"/>
     <use xlink:href="#DejaVuSerif-Italic-79" transform="translate(76.513672 0)"/>
     <use xlink:href="#DejaVuSerif-Italic-63" transform="translate(133.007812 0)"/>
     <use xlink:href="#DejaVuSerif-Italic-6c" transform="translate(189.013672 0)"/>
     <use xlink:href="#DejaVuSerif-Italic-65" transform="translate(220.996094 0)"/>
     <use xlink:href="#DejaVuSerif-Italic-20" transform="translate(280.175781 0)"/>
     <use xlink:href="#DejaVuSerif-Italic-32" transform="translate(311.962891 0)"/>
    </g>
   </g>
   <g id="text_33">
    <!-- Cycle 3 -->
    <g style="fill: #1d5c38" transform="translate(339.256529 24.374887) scale(0.07 -0.07)">
     <defs>
      <path id="DejaVuSerif-Italic-33" d="M 1038 4469 
Q 1431 4606 1781 4678 
Q 2131 4750 2425 4750 
Q 3109 4750 3436 4454 
Q 3763 4159 3659 3634 
Q 3578 3213 3258 2930 
Q 2938 2647 2431 2547 
Q 2988 2466 3241 2130 
Q 3494 1794 3388 1259 
Q 3263 606 2755 257 
Q 2247 -91 1422 -91 
Q 1056 -91 723 -12 
Q 391 66 78 225 
L 253 1131 
L 603 1131 
Q 547 681 775 450 
Q 1003 219 1497 219 
Q 1975 219 2304 495 
Q 2634 772 2728 1253 
Q 2834 1803 2604 2086 
Q 2375 2369 1825 2369 
L 1528 2369 
L 1591 2688 
L 1747 2688 
Q 2294 2688 2611 2914 
Q 2928 3141 3019 3597 
Q 3097 4006 2914 4223 
Q 2731 4441 2309 4441 
Q 1888 4441 1616 4241 
Q 1344 4041 1228 3647 
L 878 3647 
L 1038 4469 
z
" transform="scale(0.015625)"/>
     </defs>
     <use xlink:href="#DejaVuSerif-Italic-43"/>
     <use xlink:href="#DejaVuSerif-Italic-79" transform="translate(76.513672 0)"/>
     <use xlink:href="#DejaVuSerif-Italic-63" transform="translate(133.007812 0)"/>
     <use xlink:href="#DejaVuSerif-Italic-6c" transform="translate(189.013672 0)"/>
     <use xlink:href="#DejaVuSerif-Italic-65" transform="translate(220.996094 0)"/>
     <use xlink:href="#DejaVuSerif-Italic-20" transform="translate(280.175781 0)"/>
     <use xlink:href="#DejaVuSerif-Italic-33" transform="translate(311.962891 0)"/>
    </g>
   </g>
   <g id="text_34">
    <!-- Cycle 1 -->
    <g style="fill: #1d5c38" transform="translate(131.360845 59.714887) scale(0.07 -0.07)">
     <use xlink:href="#DejaVuSerif-Italic-43"/>
     <use xlink:href="#DejaVuSerif-Italic-79" transform="translate(76.513672 0)"/>
     <use xlink:href="#DejaVuSerif-Italic-63" transform="translate(133.007812 0)"/>
     <use xlink:href="#DejaVuSerif-Italic-6c" transform="translate(189.013672 0)"/>
     <use xlink:href="#DejaVuSerif-Italic-65" transform="translate(220.996094 0)"/>
     <use xlink:href="#DejaVuSerif-Italic-20" transform="translate(280.175781 0)"/>
     <use xlink:href="#DejaVuSerif-Italic-31" transform="translate(311.962891 0)"/>
    </g>
   </g>
   <g id="text_35">
    <!-- Cycle 2 -->
    <g style="fill: #1d5c38" transform="translate(259.016898 59.714887) scale(0.07 -0.07)">
     <use xlink:href="#DejaVuSerif-Italic-43"/>
     <use xlink:href="#DejaVuSerif-Italic-79" transform="translate(76.513672 0)"/>
     <use xlink:href="#DejaVuSerif-Italic-63" transform="translate(133.007812 0)"/>
     <use xlink:href="#DejaVuSerif-Italic-6c" transform="translate(189.013672 0)"/>
     <use xlink:href="#DejaVuSerif-Italic-65" transform="translate(220.996094 0)"/>
     <use xlink:href="#DejaVuSerif-Italic-20" transform="translate(280.175781 0)"/>
     <use xlink:href="#DejaVuSerif-Italic-32" transform="translate(311.962891 0)"/>
    </g>
   </g>
   <g id="line2d_22">
    <path d="M 113.202582 127.356 
" style="fill: none; stroke: #7b2d8b; stroke-width: 1.5; stroke-linecap: square"/>
    <defs>
     <path id="m368f2b14fe" d="M 0 4 
C 1.060812 4 2.078319 3.578535 2.828427 2.828427 
C 3.578535 2.078319 4 1.060812 4 0 
C 4 -1.060812 3.578535 -2.078319 2.828427 -2.828427 
C 2.078319 -3.578535 1.060812 -4 0 -4 
C -1.060812 -4 -2.078319 -3.578535 -2.828427 -2.828427 
C -3.578535 -2.078319 -4 -1.060812 -4 0 
C -4 1.060812 -3.578535 2.078319 -2.828427 2.828427 
C -2.078319 3.578535 -1.060812 4 0 4 
z
" style="stroke: #7b2d8b"/>
    </defs>
    <g>
     <use xlink:href="#m368f2b14fe" x="113.202582" y="127.356" style="fill: #7b2d8b; stroke: #7b2d8b"/>
    </g>
   </g>
   <g id="line2d_23">
    <path d="M 171.85163 127.356 
" style="fill: none; stroke: #7b2d8b; stroke-width: 1.5; stroke-linecap: square"/>
    <g>
     <use xlink:href="#m368f2b14fe" x="171.85163" y="127.356" style="fill: #7b2d8b; stroke: #7b2d8b"/>
    </g>
   </g>
   <g id="line2d_24">
    <path d="M 229.4879 127.356 
" style="fill: none; stroke: #7b2d8b; stroke-width: 1.5; stroke-linecap: square"/>
    <g>
     <use xlink:href="#m368f2b14fe" x="229.4879" y="127.356" style="fill: #7b2d8b; stroke: #7b2d8b"/>
    </g>
   </g>
   <g id="line2d_25">
    <path d="M 311.799124 127.356 
" style="fill: none; stroke: #7b2d8b; stroke-width: 1.5; stroke-linecap: square"/>
    <g>
     <use xlink:href="#m368f2b14fe" x="311.799124" y="127.356" style="fill: #7b2d8b; stroke: #7b2d8b"/>
    </g>
   </g>
   <g id="text_36">
    <!-- 1 -->
    <g style="fill: #ffffff" transform="translate(110.767348 129.287562) scale(0.07 -0.07)">
     <defs>
      <path id="DejaVuSerif-Bold-31" d="M 878 0 
L 878 378 
L 1753 378 
L 1753 4153 
L 781 3578 
L 781 4044 
L 1953 4750 
L 2938 4750 
L 2938 378 
L 3816 378 
L 3816 0 
L 878 0 
z
" transform="scale(0.015625)"/>
     </defs>
     <use xlink:href="#DejaVuSerif-Bold-31"/>
    </g>
   </g>
   <g id="text_37">
    <!-- 2 -->
    <g style="fill: #ffffff" transform="translate(169.416396 129.287562) scale(0.07 -0.07)">
     <use xlink:href="#DejaVuSerif-Bold-32"/>
    </g>
   </g>
   <g id="text_38">
    <!-- 3 -->
    <g style="fill: #ffffff" transform="translate(227.052666 129.287562) scale(0.07 -0.07)">
     <defs>
      <path id="DejaVuSerif-Bold-33" d="M 550 4531 
Q 963 4641 1350 4695 
Q 1738 4750 2106 4750 
Q 2950 4750 3401 4448 
Q 3853 4147 3853 3584 
Q 3853 3163 3593 2900 
Q 3334 2638 2834 2547 
Q 3444 2450 3744 2131 
Q 4044 1813 4044 1259 
Q 4044 606 3526 257 
Q 3009 -91 2028 -91 
Q 1659 -91 1267 -28 
Q 875 34 447 159 
L 447 1184 
L 825 1184 
Q 859 741 1103 508 
Q 1347 275 1778 275 
Q 2253 275 2512 539 
Q 2772 803 2772 1288 
Q 2772 1794 2501 2069 
Q 2231 2344 1734 2344 
L 1528 2344 
L 1528 2719 
L 1691 2719 
Q 2150 2719 2381 2931 
Q 2613 3144 2613 3566 
Q 2613 3963 2395 4173 
Q 2178 4384 1772 4384 
Q 1403 4384 1187 4182 
Q 972 3981 928 3597 
L 550 3597 
L 550 4531 
z
" transform="scale(0.015625)"/>
     </defs>
     <use xlink:href="#DejaVuSerif-Bold-33"/>
    </g>
   </g>
   <g id="text_39">
    <!-- 4 -->
    <g style="fill: #ffffff" transform="translate(309.363889 129.287562) scale(0.07 -0.07)">
     <defs>
      <path id="DejaVuSerif-Bold-34" d="M 4084 0 
L 1516 0 
L 1516 378 
L 2209 378 
L 2209 1228 
L 263 1228 
L 263 1588 
L 2216 4750 
L 3391 4750 
L 3391 1631 
L 4191 1631 
L 4191 1228 
L 3391 1228 
L 3391 378 
L 4084 378 
L 4084 0 
z
M 2209 1631 
L 2209 3897 
L 819 1631 
L 2209 1631 
z
" transform="scale(0.015625)"/>
     </defs>
     <use xlink:href="#DejaVuSerif-Bold-34"/>
    </g>
   </g>
  </g>
  <g id="legend_1">
   <g id="patch_32">
    <path d="M 55.120923 210.776 
L 376.139673 210.776 
Q 377.739673 210.776 377.739673 209.176 
L 377.739673 186.2635 
Q 377.739673 184.6635 376.139673 184.6635 
L 55.120923 184.6635 
Q 53.520923 184.6635 53.520923 186.2635 
L 53.520923 209.176 
Q 53.520923 210.776 55.120923 210.776 
z
" style="fill: #ffffff; opacity: 0.95; stroke: #cccccc; stroke-linejoin: miter"/>
   </g>
   <g id="patch_33">
    <path d="M 56.720923 193.94225 
L 65.520923 193.94225 
L 65.520923 188.34225 
L 56.720923 188.34225 
z
" style="fill: #3a7fc1; stroke: #3a7fc1; stroke-linejoin: miter"/>
   </g>
   <g id="text_40">
    <!-- Transit to site -->
    <g transform="translate(68.720923 193.94225) scale(0.08 -0.08)">
     <defs>
      <path id="DejaVuSerif-54" d="M 1222 0 
L 1222 331 
L 1819 331 
L 1819 4294 
L 447 4294 
L 447 3566 
L 63 3566 
L 63 4666 
L 4206 4666 
L 4206 3566 
L 3822 3566 
L 3822 4294 
L 2450 4294 
L 2450 331 
L 3047 331 
L 3047 0 
L 1222 0 
z
" transform="scale(0.015625)"/>
      <path id="DejaVuSerif-72" d="M 3059 3328 
L 3059 2497 
L 2728 2497 
Q 2713 2744 2591 2866 
Q 2469 2988 2234 2988 
Q 1809 2988 1582 2694 
Q 1356 2400 1356 1850 
L 1356 331 
L 2022 331 
L 2022 0 
L 263 0 
L 263 331 
L 781 331 
L 781 2994 
L 231 2994 
L 231 3322 
L 1356 3322 
L 1356 2731 
Q 1525 3078 1790 3245 
Q 2056 3413 2438 3413 
Q 2578 3413 2733 3391 
Q 2888 3369 3059 3328 
z
" transform="scale(0.015625)"/>
     </defs>
     <use xlink:href="#DejaVuSerif-54"/>
     <use xlink:href="#DejaVuSerif-72" transform="translate(66.699219 0)"/>
     <use xlink:href="#DejaVuSerif-61" transform="translate(114.501953 0)"/>
     <use xlink:href="#DejaVuSerif-6e" transform="translate(174.121094 0)"/>
     <use xlink:href="#DejaVuSerif-73" transform="translate(238.525391 0)"/>
     <use xlink:href="#DejaVuSerif-69" transform="translate(289.84375 0)"/>
     <use xlink:href="#DejaVuSerif-74" transform="translate(321.826172 0)"/>
     <use xlink:href="#DejaVuSerif-20" transform="translate(362.011719 0)"/>
     <use xlink:href="#DejaVuSerif-74" transform="translate(393.798828 0)"/>
     <use xlink:href="#DejaVuSerif-6f" transform="translate(433.984375 0)"/>
     <use xlink:href="#DejaVuSerif-20" transform="translate(494.189453 0)"/>
     <use xlink:href="#DejaVuSerif-73" transform="translate(525.976562 0)"/>
     <use xlink:href="#DejaVuSerif-69" transform="translate(577.294922 0)"/>
     <use xlink:href="#DejaVuSerif-74" transform="translate(609.277344 0)"/>
     <use xlink:href="#DejaVuSerif-65" transform="translate(649.462891 0)"/>
    </g>
   </g>
   <g id="patch_34">
    <path d="M 56.720923 205.68475 
L 65.520923 205.68475 
L 65.520923 200.08475 
L 56.720923 200.08475 
z
" style="fill: #2e8b57; stroke: #2e8b57; stroke-linejoin: miter"/>
   </g>
   <g id="text_41">
    <!-- On station -->
    <g transform="translate(68.720923 205.68475) scale(0.08 -0.08)">
     <defs>
      <path id="DejaVuSerif-4f" d="M 2625 244 
Q 3391 244 3781 770 
Q 4172 1297 4172 2328 
Q 4172 3363 3781 3889 
Q 3391 4416 2625 4416 
Q 1856 4416 1465 3889 
Q 1075 3363 1075 2328 
Q 1075 1297 1465 770 
Q 1856 244 2625 244 
z
M 2625 -91 
Q 2150 -91 1751 65 
Q 1353 222 1050 525 
Q 700 875 529 1319 
Q 359 1763 359 2328 
Q 359 2894 529 3339 
Q 700 3784 1050 4134 
Q 1356 4441 1750 4595 
Q 2144 4750 2625 4750 
Q 3641 4750 4266 4084 
Q 4891 3419 4891 2328 
Q 4891 1769 4719 1320 
Q 4547 872 4197 525 
Q 3891 219 3497 64 
Q 3103 -91 2625 -91 
z
" transform="scale(0.015625)"/>
     </defs>
     <use xlink:href="#DejaVuSerif-4f"/>
     <use xlink:href="#DejaVuSerif-6e" transform="translate(81.982422 0)"/>
     <use xlink:href="#DejaVuSerif-20" transform="translate(146.386719 0)"/>
     <use xlink:href="#DejaVuSerif-73" transform="translate(178.173828 0)"/>
     <use xlink:href="#DejaVuSerif-74" transform="translate(229.492188 0)"/>
     <use xlink:href="#DejaVuSerif-61" transform="translate(269.677734 0)"/>
     <use xlink:href="#DejaVuSerif-74" transform="translate(329.296875 0)"/>
     <use xlink:href="#DejaVuSerif-69" transform="translate(369.482422 0)"/>
     <use xlink:href="#DejaVuSerif-6f" transform="translate(401.464844 0)"/>
     <use xlink:href="#DejaVuSerif-6e" transform="translate(461.669922 0)"/>
    </g>
   </g>
   <g id="patch_35">
    <path d="M 131.012173 193.94225 
L 139.812173 193.94225 
L 139.812173 188.34225 
L 131.012173 188.34225 
z
" style="fill: #7b2d8b; stroke: #7b2d8b; stroke-linejoin: miter"/>
   </g>
   <g id="text_42">
    <!-- Relay handoff (camera sync) -->
    <g transform="translate(143.012173 193.94225) scale(0.08 -0.08)">
     <defs>
      <path id="DejaVuSerif-52" d="M 3066 2316 
Q 3284 2256 3442 2114 
Q 3600 1972 3725 1716 
L 4403 331 
L 4972 331 
L 4972 0 
L 3872 0 
L 3144 1484 
Q 2934 1916 2759 2042 
Q 2584 2169 2278 2169 
L 1581 2169 
L 1581 331 
L 2241 331 
L 2241 0 
L 353 0 
L 353 331 
L 947 331 
L 947 4331 
L 353 4331 
L 353 4666 
L 2719 4666 
Q 3400 4666 3770 4341 
Q 4141 4016 4141 3419 
Q 4141 2938 3870 2661 
Q 3600 2384 3066 2316 
z
M 1581 2503 
L 2503 2503 
Q 2975 2503 3200 2726 
Q 3425 2950 3425 3419 
Q 3425 3888 3200 4109 
Q 2975 4331 2503 4331 
L 1581 4331 
L 1581 2503 
z
" transform="scale(0.015625)"/>
      <path id="DejaVuSerif-79" d="M 1381 -609 
L 1600 -56 
L 359 2988 
L -19 2988 
L -19 3322 
L 1509 3322 
L 1509 2988 
L 978 2988 
L 1913 703 
L 2847 2988 
L 2350 2988 
L 2350 3322 
L 3597 3322 
L 3597 2988 
L 3225 2988 
L 1703 -750 
Q 1547 -1138 1356 -1280 
Q 1166 -1422 819 -1422 
Q 672 -1422 517 -1397 
Q 363 -1372 206 -1325 
L 206 -691 
L 500 -691 
Q 519 -903 608 -995 
Q 697 -1088 884 -1088 
Q 1056 -1088 1161 -992 
Q 1266 -897 1381 -609 
z
" transform="scale(0.015625)"/>
      <path id="DejaVuSerif-68" d="M 263 0 
L 263 331 
L 781 331 
L 781 4531 
L 231 4531 
L 231 4863 
L 1356 4863 
L 1356 2731 
Q 1516 3069 1770 3241 
Q 2025 3413 2363 3413 
Q 2913 3413 3172 3097 
Q 3431 2781 3431 2113 
L 3431 331 
L 3944 331 
L 3944 0 
L 2356 0 
L 2356 331 
L 2853 331 
L 2853 1931 
Q 2853 2541 2704 2764 
Q 2556 2988 2175 2988 
Q 1775 2988 1565 2697 
Q 1356 2406 1356 1850 
L 1356 331 
L 1856 331 
L 1856 0 
L 263 0 
z
" transform="scale(0.015625)"/>
      <path id="DejaVuSerif-66" d="M 2753 4078 
L 2450 4078 
Q 2447 4313 2317 4434 
Q 2188 4556 1941 4556 
Q 1619 4556 1487 4379 
Q 1356 4203 1356 3750 
L 1356 3322 
L 2284 3322 
L 2284 2988 
L 1356 2988 
L 1356 331 
L 2094 331 
L 2094 0 
L 231 0 
L 231 331 
L 781 331 
L 781 2988 
L 231 2988 
L 231 3322 
L 781 3322 
L 781 3738 
Q 781 4294 1070 4578 
Q 1359 4863 1919 4863 
Q 2128 4863 2337 4825 
Q 2547 4788 2753 4709 
L 2753 4078 
z
" transform="scale(0.015625)"/>
      <path id="DejaVuSerif-63" d="M 3291 997 
Q 3169 466 2822 187 
Q 2475 -91 1925 -91 
Q 1200 -91 759 389 
Q 319 869 319 1663 
Q 319 2459 759 2936 
Q 1200 3413 1925 3413 
Q 2241 3413 2553 3339 
Q 2866 3266 3181 3116 
L 3181 2266 
L 2847 2266 
Q 2781 2703 2561 2903 
Q 2341 3103 1931 3103 
Q 1466 3103 1228 2742 
Q 991 2381 991 1663 
Q 991 944 1227 581 
Q 1463 219 1931 219 
Q 2303 219 2525 412 
Q 2747 606 2828 997 
L 3291 997 
z
" transform="scale(0.015625)"/>
     </defs>
     <use xlink:href="#DejaVuSerif-52"/>
     <use xlink:href="#DejaVuSerif-65" transform="translate(75.292969 0)"/>
     <use xlink:href="#DejaVuSerif-6c" transform="translate(134.472656 0)"/>
     <use xlink:href="#DejaVuSerif-61" transform="translate(166.455078 0)"/>
     <use xlink:href="#DejaVuSerif-79" transform="translate(226.074219 0)"/>
     <use xlink:href="#DejaVuSerif-20" transform="translate(282.568359 0)"/>
     <use xlink:href="#DejaVuSerif-68" transform="translate(314.355469 0)"/>
     <use xlink:href="#DejaVuSerif-61" transform="translate(378.759766 0)"/>
     <use xlink:href="#DejaVuSerif-6e" transform="translate(438.378906 0)"/>
     <use xlink:href="#DejaVuSerif-64" transform="translate(502.783203 0)"/>
     <use xlink:href="#DejaVuSerif-6f" transform="translate(566.796875 0)"/>
     <use xlink:href="#DejaVuSerif-66" transform="translate(627.001953 0)"/>
     <use xlink:href="#DejaVuSerif-66" transform="translate(664.013672 0)"/>
     <use xlink:href="#DejaVuSerif-20" transform="translate(701.025391 0)"/>
     <use xlink:href="#DejaVuSerif-28" transform="translate(732.8125 0)"/>
     <use xlink:href="#DejaVuSerif-63" transform="translate(771.826172 0)"/>
     <use xlink:href="#DejaVuSerif-61" transform="translate(827.832031 0)"/>
     <use xlink:href="#DejaVuSerif-6d" transform="translate(887.451172 0)"/>
     <use xlink:href="#DejaVuSerif-65" transform="translate(982.275391 0)"/>
     <use xlink:href="#DejaVuSerif-72" transform="translate(1041.455078 0)"/>
     <use xlink:href="#DejaVuSerif-61" transform="translate(1089.257812 0)"/>
     <use xlink:href="#DejaVuSerif-20" transform="translate(1148.876953 0)"/>
     <use xlink:href="#DejaVuSerif-73" transform="translate(1180.664062 0)"/>
     <use xlink:href="#DejaVuSerif-79" transform="translate(1231.982422 0)"/>
     <use xlink:href="#DejaVuSerif-6e" transform="translate(1288.476562 0)"/>
     <use xlink:href="#DejaVuSerif-63" transform="translate(1352.880859 0)"/>
     <use xlink:href="#DejaVuSerif-29" transform="translate(1408.886719 0)"/>
    </g>
   </g>
   <g id="patch_36">
    <path d="M 131.012173 205.7985 
L 139.812173 205.7985 
L 139.812173 200.1985 
L 131.012173 200.1985 
z
" style="fill: #cc5500; stroke: #cc5500; stroke-linejoin: miter"/>
   </g>
   <g id="text_43">
    <!-- Return to home -->
    <g transform="translate(143.012173 205.7985) scale(0.08 -0.08)">
     <defs>
      <path id="DejaVuSerif-75" d="M 2266 3322 
L 3341 3322 
L 3341 331 
L 3884 331 
L 3884 0 
L 2766 0 
L 2766 588 
Q 2606 256 2353 82 
Q 2100 -91 1766 -91 
Q 1213 -91 952 223 
Q 691 538 691 1209 
L 691 2988 
L 172 2988 
L 172 3322 
L 1269 3322 
L 1269 1388 
Q 1269 781 1417 556 
Q 1566 331 1947 331 
Q 2347 331 2556 625 
Q 2766 919 2766 1478 
L 2766 2988 
L 2266 2988 
L 2266 3322 
z
" transform="scale(0.015625)"/>
     </defs>
     <use xlink:href="#DejaVuSerif-52"/>
     <use xlink:href="#DejaVuSerif-65" transform="translate(75.292969 0)"/>
     <use xlink:href="#DejaVuSerif-74" transform="translate(134.472656 0)"/>
     <use xlink:href="#DejaVuSerif-75" transform="translate(174.658203 0)"/>
     <use xlink:href="#DejaVuSerif-72" transform="translate(239.0625 0)"/>
     <use xlink:href="#DejaVuSerif-6e" transform="translate(286.865234 0)"/>
     <use xlink:href="#DejaVuSerif-20" transform="translate(351.269531 0)"/>
     <use xlink:href="#DejaVuSerif-74" transform="translate(383.056641 0)"/>
     <use xlink:href="#DejaVuSerif-6f" transform="translate(423.242188 0)"/>
     <use xlink:href="#DejaVuSerif-20" transform="translate(483.447266 0)"/>
     <use xlink:href="#DejaVuSerif-68" transform="translate(515.234375 0)"/>
     <use xlink:href="#DejaVuSerif-6f" transform="translate(579.638672 0)"/>
     <use xlink:href="#DejaVuSerif-6d" transform="translate(639.84375 0)"/>
     <use xlink:href="#DejaVuSerif-65" transform="translate(734.667969 0)"/>
    </g>
   </g>
   <g id="patch_37">
    <path d="M 264.447173 193.94225 
L 273.247173 193.94225 
L 273.247173 188.34225 
L 264.447173 188.34225 
z
" style="fill: #aaaaaa; stroke: #aaaaaa; stroke-linejoin: miter"/>
   </g>
   <g id="text_44">
    <!-- Battery swapping -->
    <g transform="translate(276.447173 193.94225) scale(0.08 -0.08)">
     <defs>
      <path id="DejaVuSerif-42" d="M 1581 331 
L 2516 331 
Q 3078 331 3337 575 
Q 3597 819 3597 1350 
Q 3597 1878 3339 2120 
Q 3081 2363 2516 2363 
L 1581 2363 
L 1581 331 
z
M 1581 2694 
L 2375 2694 
Q 2888 2694 3123 2891 
Q 3359 3088 3359 3513 
Q 3359 3941 3123 4136 
Q 2888 4331 2375 4331 
L 1581 4331 
L 1581 2694 
z
M 353 0 
L 353 331 
L 947 331 
L 947 4331 
L 353 4331 
L 353 4666 
L 2656 4666 
Q 3363 4666 3720 4377 
Q 4078 4088 4078 3513 
Q 4078 3097 3829 2850 
Q 3581 2603 3103 2547 
Q 3697 2472 4005 2167 
Q 4313 1863 4313 1350 
Q 4313 656 3875 328 
Q 3438 0 2509 0 
L 353 0 
z
" transform="scale(0.015625)"/>
      <path id="DejaVuSerif-77" d="M 3072 3322 
L 3922 728 
L 4672 2988 
L 4191 2988 
L 4191 3322 
L 5394 3322 
L 5394 2988 
L 5025 2988 
L 4038 0 
L 3559 0 
L 2741 2484 
L 1919 0 
L 1459 0 
L 475 2988 
L 103 2988 
L 103 3322 
L 1606 3322 
L 1606 2988 
L 1069 2988 
L 1813 728 
L 2669 3322 
L 3072 3322 
z
" transform="scale(0.015625)"/>
      <path id="DejaVuSerif-67" d="M 3359 2988 
L 3359 72 
Q 3359 -644 2965 -1033 
Q 2572 -1422 1844 -1422 
Q 1516 -1422 1216 -1362 
Q 916 -1303 641 -1184 
L 641 -488 
L 941 -488 
Q 997 -813 1206 -963 
Q 1416 -1113 1806 -1113 
Q 2313 -1113 2548 -827 
Q 2784 -541 2784 72 
L 2784 519 
Q 2616 206 2355 57 
Q 2094 -91 1709 -91 
Q 1097 -91 708 395 
Q 319 881 319 1663 
Q 319 2444 706 2928 
Q 1094 3413 1709 3413 
Q 2094 3413 2355 3264 
Q 2616 3116 2784 2803 
L 2784 3322 
L 3909 3322 
L 3909 2988 
L 3359 2988 
z
M 2784 1825 
Q 2784 2422 2554 2737 
Q 2325 3053 1888 3053 
Q 1444 3053 1217 2703 
Q 991 2353 991 1663 
Q 991 975 1217 622 
Q 1444 269 1888 269 
Q 2325 269 2554 583 
Q 2784 897 2784 1497 
L 2784 1825 
z
" transform="scale(0.015625)"/>
     </defs>
     <use xlink:href="#DejaVuSerif-42"/>
     <use xlink:href="#DejaVuSerif-61" transform="translate(73.486328 0)"/>
     <use xlink:href="#DejaVuSerif-74" transform="translate(133.105469 0)"/>
     <use xlink:href="#DejaVuSerif-74" transform="translate(173.291016 0)"/>
     <use xlink:href="#DejaVuSerif-65" transform="translate(213.476562 0)"/>
     <use xlink:href="#DejaVuSerif-72" transform="translate(272.65625 0)"/>
     <use xlink:href="#DejaVuSerif-79" transform="translate(320.458984 0)"/>
     <use xlink:href="#DejaVuSerif-20" transform="translate(376.953125 0)"/>
     <use xlink:href="#DejaVuSerif-73" transform="translate(408.740234 0)"/>
     <use xlink:href="#DejaVuSerif-77" transform="translate(460.058594 0)"/>
     <use xlink:href="#DejaVuSerif-61" transform="translate(545.654297 0)"/>
     <use xlink:href="#DejaVuSerif-70" transform="translate(605.273438 0)"/>
     <use xlink:href="#DejaVuSerif-70" transform="translate(669.287109 0)"/>
     <use xlink:href="#DejaVuSerif-69" transform="translate(733.300781 0)"/>
     <use xlink:href="#DejaVuSerif-6e" transform="translate(765.283203 0)"/>
     <use xlink:href="#DejaVuSerif-67" transform="translate(829.6875 0)"/>
    </g>
   </g>
   <g id="patch_38">
    <path d="M 264.447173 205.7985 
L 273.247173 205.7985 
L 273.247173 200.1985 
L 264.447173 200.1985 
z
" style="fill: #f4c430; stroke: #f4c430; stroke-linejoin: miter"/>
   </g>
   <g id="text_45">
    <!-- Uninterrupted coverage -->
    <g transform="translate(276.447173 205.7985) scale(0.08 -0.08)">
     <defs>
      <path id="DejaVuSerif-55" d="M 897 4331 
L 300 4331 
L 300 4666 
L 2125 4666 
L 2125 4331 
L 1528 4331 
L 1528 1919 
Q 1528 1025 1820 672 
Q 2113 319 2828 319 
Q 3544 319 3836 672 
Q 4128 1025 4128 1919 
L 4128 4331 
L 3531 4331 
L 3531 4666 
L 5106 4666 
L 5106 4331 
L 4513 4331 
L 4513 1856 
Q 4513 791 4103 350 
Q 3694 -91 2713 -91 
Q 1731 -91 1314 353 
Q 897 797 897 1856 
L 897 4331 
z
" transform="scale(0.015625)"/>
      <path id="DejaVuSerif-76" d="M 1581 0 
L 359 2988 
L -19 2988 
L -19 3322 
L 1509 3322 
L 1509 2988 
L 978 2988 
L 1913 703 
L 2847 2988 
L 2350 2988 
L 2350 3322 
L 3597 3322 
L 3597 2988 
L 3225 2988 
L 2003 0 
L 1581 0 
z
" transform="scale(0.015625)"/>
     </defs>
     <use xlink:href="#DejaVuSerif-55"/>
     <use xlink:href="#DejaVuSerif-6e" transform="translate(84.277344 0)"/>
     <use xlink:href="#DejaVuSerif-69" transform="translate(148.681641 0)"/>
     <use xlink:href="#DejaVuSerif-6e" transform="translate(180.664062 0)"/>
     <use xlink:href="#DejaVuSerif-74" transform="translate(245.068359 0)"/>
     <use xlink:href="#DejaVuSerif-65" transform="translate(285.253906 0)"/>
     <use xlink:href="#DejaVuSerif-72" transform="translate(344.433594 0)"/>
     <use xlink:href="#DejaVuSerif-72" transform="translate(392.236328 0)"/>
     <use xlink:href="#DejaVuSerif-75" transform="translate(440.039062 0)"/>
     <use xlink:href="#DejaVuSerif-70" transform="translate(504.443359 0)"/>
     <use xlink:href="#DejaVuSerif-74" transform="translate(568.457031 0)"/>
     <use xlink:href="#DejaVuSerif-65" transform="translate(608.642578 0)"/>
     <use xlink:href="#DejaVuSerif-64" transform="translate(667.822266 0)"/>
     <use xlink:href="#DejaVuSerif-20" transform="translate(731.835938 0)"/>
     <use xlink:href="#DejaVuSerif-63" transform="translate(763.623047 0)"/>
     <use xlink:href="#DejaVuSerif-6f" transform="translate(819.628906 0)"/>
     <use xlink:href="#DejaVuSerif-76" transform="translate(879.833984 0)"/>
     <use xlink:href="#DejaVuSerif-65" transform="translate(936.328125 0)"/>
     <use xlink:href="#DejaVuSerif-72" transform="translate(995.507812 0)"/>
     <use xlink:href="#DejaVuSerif-61" transform="translate(1043.310547 0)"/>
     <use xlink:href="#DejaVuSerif-67" transform="translate(1102.929688 0)"/>
     <use xlink:href="#DejaVuSerif-65" transform="translate(1166.943359 0)"/>
    </g>
   </g>
  </g>
 </g>
 <defs>
  <clipPath id="p5320cde0a5">
   <rect x="29.510298" y="7.2" width="380.16" height="127.224"/>
  </clipPath>
 </defs>
</svg>
